<?xml version="1.0" standalone="no"?>
<!DOCTYPE svg PUBLIC "-//W3C//DTD SVG 1.1//EN" "http://www.w3.org/Graphics/SVG/1.1/DTD/svg11.dtd" >
<svg xmlns="http://www.w3.org/2000/svg" xmlns:xlink="http://www.w3.org/1999/xlink" version="1.1">
<metadata>
Created by FontForge 20160405 at Thu Jan 18 02:46:24 2018
 By www-data
Copyright (c) TYPADELIC FONTS, 2002. All rights reserved.
</metadata>
<defs>
<font id="BlackJack" horiz-adv-x="421" >
  <font-face 
    font-family="Black Jack"
    font-weight="400"
    font-stretch="normal"
    units-per-em="1000"
    panose-1="3 6 5 0 4 0 4 0 0 0"
    ascent="800"
    descent="-200"
    x-height="360"
    cap-height="754"
    bbox="-186 -521 970 995"
    underline-thickness="41"
    underline-position="-187"
    stemh="34"
    stemv="35"
    unicode-range="U+0020-2212"
  />
<missing-glyph horiz-adv-x="1000" 
 />
    <glyph glyph-name=".notdef" horiz-adv-x="1000" 
 />
    <glyph glyph-name=".notdef" horiz-adv-x="1000" 
 />
    <glyph glyph-name="exclam" unicode="!" horiz-adv-x="314" 
d="M235 777c38 0 49 -20 49 -56c0 -21 -5 -41 -9 -61c-14 -66 -81 -371 -90 -422c-3 -18 -7 -37 -30 -37c-14 0 -15 21 -15 30c0 5 1 9 1 14c10 109 14 219 22 328c6 77 -1 204 72 204zM141 0c-23 0 -41 16 -41 40c0 22 8 51 35 51c21 0 43 -18 43 -40c0 -27 -5 -51 -37 -51
z" />
    <glyph glyph-name="quotedbl" unicode="&#x22;" horiz-adv-x="307" 
d="M242 452c-14 0 -16 17 -17 28l-15 175c0 19 14 35 33 35c18 0 34 -17 34 -35c0 -4 -13 -135 -16 -176c-1 -12 -5 -27 -19 -27zM132 452c-13 0 -16 15 -18 26v2c-4 26 -14 171 -14 175c0 19 14 35 33 35c18 0 34 -17 34 -35c0 -4 -13 -145 -16 -176c-1 -12 -5 -27 -19 -27
z" />
    <glyph glyph-name="dollar" unicode="$" horiz-adv-x="632" 
d="M364 54c45 18 78 46 78 85c0 35 -29 68 -70 103c0 -38 -3 -75 -5 -113zM317 643c-44 -24 -82 -61 -82 -106c0 -44 36 -86 82 -127v233zM602 655c0 -24 -12 -51 -30 -67c-20 -18 -63 -46 -91 -46c-15 0 -26 10 -26 25c0 33 66 63 66 93c0 20 -36 20 -49 20
c-27 0 -60 0 -85 -9c-3 -103 -7 -207 -11 -311c69 -59 138 -122 138 -200c0 -83 -70 -130 -153 -155v-53c0 -20 -2 -46 -23 -46c-12 0 -21 10 -21 22v65c-58 -13 -117 -16 -159 -16h-17c-34 0 -104 2 -111 30c0 24 14 24 32 24c33 0 64 -13 98 -13c33 0 98 4 157 20v248
c-83 65 -176 139 -176 239c0 94 84 143 176 167v55c0 26 12 54 42 54c19 0 30 -15 30 -33c0 -21 0 -41 -1 -62c39 5 76 7 106 7c37 0 108 -7 108 -58z" />
    <glyph glyph-name="percent" unicode="%" horiz-adv-x="808" 
d="M218 -41c-11 0 -21 9 -21 20c0 3 1 7 2 10l333 748c8 17 23 36 43 36c18 0 35 -10 35 -29c0 -18 -18 -47 -28 -69c-19 -40 -219 -450 -256 -523l-64 -129c-11 -22 -22 -64 -44 -64zM161 369c-75 0 -101 74 -101 137c0 101 74 240 188 240c77 0 100 -80 100 -144
c0 -99 -77 -233 -187 -233zM251 699c-80 0 -133 -137 -133 -203c0 -31 5 -94 47 -94c83 0 145 136 145 207c0 34 -18 90 -59 90zM561 -1c-75 0 -101 74 -101 137c0 101 74 240 188 240c77 0 100 -80 100 -144c0 -99 -77 -233 -187 -233zM651 329c-80 0 -133 -137 -133 -203
c0 -31 5 -94 47 -94c83 0 145 136 145 207c0 34 -18 90 -59 90z" />
    <glyph glyph-name="ampersand" unicode="&#x26;" horiz-adv-x="493" 
d="M450 117c-9 -9 -20 -18 -30 -26c0 0 40 -73 40 -82c0 -15 -17 -20 -31 -20c-11 0 -22 1 -28 13l-31 61c-43 -38 -109 -63 -166 -63c-85 0 -159 58 -159 148c0 94 83 179 153 231c-18 37 -34 78 -34 121c0 87 61 165 152 165c64 0 129 -41 129 -113
c0 -94 -84 -156 -154 -199c35 -72 72 -144 108 -216c0 0 30 41 49 41c12 0 23 -13 23 -24c0 -12 -10 -26 -21 -37zM326 626c-61 0 -100 -62 -100 -120c0 -34 9 -67 22 -99c61 41 123 95 123 173c0 30 -15 46 -45 46zM349 103l-110 225c-62 -49 -126 -124 -126 -203
c0 -58 32 -85 89 -85c55 0 103 31 147 63z" />
    <glyph glyph-name="quoteright" unicode="&#x2019;" horiz-adv-x="237" 
d="M100 461c0 9 37 48 37 104c0 14 -5 27 -5 42c0 22 18 43 41 43c20 0 34 -11 34 -32c0 -9 -1 -18 -2 -26c-4 -33 -59 -140 -96 -140c-6 0 -9 3 -9 9z" />
    <glyph glyph-name="parenleft" unicode="(" horiz-adv-x="366" 
d="M113 328c0 -103 28 -215 94 -295c13 -15 26 -28 40 -41c5 -5 9 -9 9 -17c0 -12 -6 -24 -18 -24c-5 0 -10 3 -14 6c-153 113 -194 271 -194 384c0 185 135 356 274 457c4 3 9 6 14 6c12 0 18 -12 18 -24c0 -8 -4 -12 -9 -17c-15 -14 -31 -28 -46 -43
c-101 -106 -168 -244 -168 -392z" />
    <glyph glyph-name="parenright" unicode=")" horiz-adv-x="366" 
d="M253 427c0 103 -28 215 -94 295c-13 15 -26 28 -40 41c-5 5 -9 9 -9 17c0 12 6 24 18 24c5 0 10 -3 14 -6c153 -113 194 -271 194 -384c0 -185 -135 -356 -274 -457c-4 -3 -9 -6 -14 -6c-12 0 -18 12 -18 24c0 8 4 12 9 17c15 14 31 28 46 43c101 106 168 244 168 392z
" />
    <glyph glyph-name="asterisk" unicode="*" horiz-adv-x="492" 
d="M416 408c0 -11 -11 -22 -22 -22c-6 0 -11 3 -15 7l-77 77v-109c0 -12 -9 -21 -21 -21s-21 9 -21 21v109l-77 -77c-4 -4 -9 -7 -15 -7c-11 0 -22 11 -22 22c0 6 3 11 7 15l77 77h-109c-12 0 -21 9 -21 21s9 21 21 21h109l-77 77c-4 4 -7 9 -7 15c0 11 11 22 22 22
c6 0 11 -3 15 -7l77 -77v109c0 12 9 21 21 21s21 -9 21 -21v-109l77 77c4 4 9 7 15 7c11 0 22 -11 22 -22c0 -6 -3 -11 -7 -15l-77 -77h109c12 0 21 -9 21 -21s-9 -21 -21 -21h-109l77 -77c4 -4 7 -9 7 -15z" />
    <glyph glyph-name="plus" unicode="+" horiz-adv-x="429" 
d="M233 140v-142h-37v142h-136v34h136v140h37v-140h136v-34h-136z" />
    <glyph glyph-name="comma" unicode="," horiz-adv-x="282" 
d="M100 -103c0 12 37 42 37 104c0 14 -5 29 -5 42c0 22 18 43 41 43c22 0 34 -12 34 -32c0 -6 -1 -20 -2 -26c-4 -35 -60 -140 -96 -140c-6 0 -9 3 -9 9z" />
    <glyph glyph-name="hyphen" unicode="-" horiz-adv-x="481" 
d="M100 206c0 18 18 26 33 26c14 0 28 -2 42 -3c29 -2 58 -3 87 -3c44 0 88 2 133 3c12 0 26 -1 26 -17c0 -9 -7 -9 -14 -11c-63 -16 -171 -20 -237 -20c-13 0 -46 0 -58 4s-12 9 -12 21z" />
    <glyph glyph-name="period" unicode="." horiz-adv-x="253" 
d="M141 0c-23 0 -41 16 -41 40c0 22 8 51 35 51c21 0 43 -18 43 -40c0 -27 -5 -51 -37 -51z" />
    <glyph glyph-name="slash" unicode="/" horiz-adv-x="442" 
d="M51 -41c-11 0 -21 9 -21 20c0 3 1 7 2 10l333 748c8 17 23 36 43 36c18 0 34 -10 34 -29c0 -21 -17 -47 -28 -69c-20 -40 -218 -450 -255 -523l-64 -129c-11 -22 -22 -64 -44 -64z" />
    <glyph glyph-name="zero" unicode="0" horiz-adv-x="515" 
d="M35 186c0 156 116 371 292 371c118 0 153 -123 153 -220c0 -153 -121 -361 -291 -361c-115 0 -154 113 -154 210zM114 170c0 -51 11 -155 81 -155c136 0 237 217 237 333c0 57 -32 148 -101 148c-130 0 -217 -217 -217 -326z" />
    <glyph glyph-name="one" unicode="1" horiz-adv-x="346" 
d="M79 -17c0 31 44 156 56 196c23 79 43 159 50 241c-27 -22 -106 -86 -139 -86c-13 0 -16 8 -16 19c0 25 32 37 52 51c50 36 96 79 132 130c14 20 32 27 56 27c16 0 46 -5 46 -26c0 -12 -7 -22 -13 -32c-23 -41 -36 -90 -48 -135c-32 -118 -74 -357 -74 -357
c-7 -38 -55 -48 -88 -48c-12 0 -14 10 -14 20z" />
    <glyph glyph-name="two" unicode="2" horiz-adv-x="498" 
d="M144 66c16 7 34 10 51 10c62 0 121 -28 181 -28c18 0 39 2 55 11c10 6 18 25 27 25c10 0 19 -9 19 -19c0 -46 -70 -78 -109 -78c-56 0 -107 22 -163 22c-53 0 -104 -23 -151 -23c-13 0 -26 5 -26 20c0 35 312 247 312 440c0 49 -40 95 -90 95c-59 0 -125 -47 -139 -105
c-3 -14 -3 -35 -23 -35c-17 0 -21 10 -21 26c0 95 114 162 199 162c89 0 165 -61 165 -153c0 -118 -200 -298 -287 -370z" />
    <glyph glyph-name="three" unicode="3" horiz-adv-x="468" 
d="M58 -217c-30 0 -128 6 -128 48c0 14 10 18 22 18c19 0 33 -9 50 -15c16 -6 32 -7 49 -7c139 0 308 99 308 253c0 106 -112 160 -205 160l-59 -4c-11 0 -26 4 -26 18c0 2 0 4 1 6c7 18 15 20 31 29c54 29 143 86 143 155c0 28 -18 51 -47 51c-47 0 -76 -34 -99 -70
c-6 -10 -11 -17 -24 -17c-16 0 -27 12 -27 28c0 14 6 24 15 34c34 39 105 64 156 64c50 0 123 -17 123 -80c0 -69 -69 -126 -125 -154c117 -12 231 -73 231 -205c0 -174 -232 -312 -389 -312z" />
    <glyph glyph-name="four" unicode="4" horiz-adv-x="546" 
d="M371 116c-16 -63 -32 -126 -46 -189c-4 -19 -10 -38 -30 -38c-16 0 -25 11 -25 26c0 3 0 7 1 10c14 61 30 122 39 184c-61 -4 -123 -5 -184 -5c-33 0 -96 1 -96 46c0 6 1 13 3 19c14 52 239 361 285 419c10 13 33 34 51 34c17 0 31 -12 31 -29c0 -14 -16 -27 -25 -37
c-35 -38 -241 -340 -241 -375c0 -11 46 -12 81 -12c55 0 69 0 106 2c15 72 40 146 57 220c5 21 14 40 39 40c17 0 26 -8 26 -25c0 -28 -46 -190 -56 -228c39 2 78 10 117 10c13 0 27 -6 27 -21c0 -55 -160 -51 -160 -51z" />
    <glyph glyph-name="five" unicode="5" horiz-adv-x="483" 
d="M91 333c136 -5 360 -42 360 -220c0 -126 -137 -228 -244 -266c-51 -18 -106 -28 -160 -28h-11c-32 0 -102 1 -102 46c0 15 17 22 30 22c24 0 50 -26 88 -26c131 0 295 83 295 241c0 118 -104 165 -205 165h-72c-16 0 -32 1 -32 21c0 32 58 198 76 224c5 8 30 12 56 12
h185l103 9c11 0 16 -1 16 -12v-2c-6 -46 -49 -54 -123 -60h-213c-15 -19 -41 -100 -47 -126z" />
    <glyph glyph-name="six" unicode="6" horiz-adv-x="517" 
d="M50 174c0 178 78 323 205 443c26 25 96 86 131 86c11 0 21 -3 21 -16c0 -12 -23 -21 -23 -21c-29 -15 -54 -32 -76 -55c-94 -98 -170 -273 -170 -410c0 -66 30 -179 113 -179c101 0 168 67 168 168c0 85 -56 130 -138 130c-21 0 -38 -4 -58 -12c-8 -3 -15 -7 -24 -7
c-4 0 -9 2 -9 7c0 27 75 53 97 58c18 4 37 7 56 7c86 0 154 -71 154 -156c0 -115 -150 -246 -262 -246c-107 0 -185 101 -185 203z" />
    <glyph glyph-name="seven" unicode="7" horiz-adv-x="460" 
d="M100 -239c-14 0 -32 7 -32 24c0 99 144 378 210 505c6 11 11 21 15 29c22 42 70 124 70 160c0 10 -7 11 -14 11l-276 -18c-18 0 -37 4 -37 26c0 21 15 33 35 33h79c78 0 156 2 234 8l18 1c23 0 59 -4 59 -35c0 -30 -18 -65 -33 -91c-78 -134 -148 -272 -206 -416
c-24 -60 -45 -121 -66 -182c-9 -26 -25 -55 -56 -55z" />
    <glyph glyph-name="eight" unicode="8" horiz-adv-x="509" 
d="M486 501c-17 0 -23 24 -26 37v2c-18 72 -69 77 -133 77c-50 0 -149 -22 -149 -86c0 -41 65 -121 97 -159l111 69c17 10 33 21 51 30c7 4 14 7 22 7s17 -4 17 -13c0 -11 -16 -24 -16 -24c-13 -15 -31 -24 -47 -36c-35 -26 -70 -52 -106 -77c37 -49 90 -121 90 -185
c0 -108 -105 -175 -205 -175c-84 0 -147 47 -147 135c0 98 91 169 162 223c-41 46 -114 131 -114 194c0 104 159 128 238 128c65 0 188 -26 188 -110c0 -17 -15 -37 -33 -37zM248 282c-51 -46 -132 -102 -132 -179c0 -51 36 -98 90 -98c70 0 115 65 115 130
c0 50 -40 112 -73 147z" />
    <glyph glyph-name="nine" unicode="9" horiz-adv-x="512" 
d="M477 327c0 -178 -78 -323 -205 -443c-26 -25 -96 -86 -131 -86c-11 0 -21 3 -21 16c0 12 14 17 23 21c128 55 246 296 246 465c0 66 -30 179 -113 179c-101 0 -168 -67 -168 -168c0 -85 56 -130 138 -130c21 0 38 4 58 12c8 3 15 7 24 7c4 0 9 -2 9 -7
c0 -27 -75 -52 -97 -57c-18 -4 -37 -8 -56 -8c-86 0 -154 71 -154 156c0 115 150 246 262 246c107 0 185 -101 185 -203z" />
    <glyph glyph-name="colon" unicode=":" horiz-adv-x="293" 
d="M141 0c-23 0 -41 16 -41 40c0 22 8 51 35 51c21 0 43 -18 43 -40c0 -27 -5 -51 -37 -51zM181 260c-23 0 -41 16 -41 40c0 22 8 51 35 51c21 0 43 -18 43 -40c0 -27 -5 -51 -37 -51z" />
    <glyph glyph-name="semicolon" unicode=";" horiz-adv-x="317" 
d="M205 260c-23 0 -41 16 -41 40c0 22 8 51 35 51c21 0 43 -18 43 -40c0 -27 -5 -51 -37 -51zM100 -103c0 12 37 42 37 104c0 14 -5 29 -5 42c0 22 18 43 41 43c22 0 34 -12 34 -32c0 -6 -1 -20 -2 -26c-4 -35 -60 -140 -96 -140c-6 0 -9 3 -9 9z" />
    <glyph glyph-name="less" unicode="&#x3c;" horiz-adv-x="469" 
d="M60 152v25l349 143v-38l-291 -118l291 -117v-38z" />
    <glyph glyph-name="equal" unicode="=" horiz-adv-x="475" 
d="M60 192v33h355v-33h-355zM60 87v34h355v-34h-355z" />
    <glyph glyph-name="greater" unicode="&#x3e;" horiz-adv-x="469" 
d="M60 10v37l292 118l-292 118v39l349 -144v-25z" />
    <glyph glyph-name="question" unicode="?" horiz-adv-x="502" 
d="M198 51c0 -27 -5 -51 -37 -51c-23 0 -41 16 -41 40c0 22 8 51 35 51c21 0 43 -18 43 -40zM171 166c-18 0 -20 28 -20 40c0 163 226 233 226 425c0 45 -37 89 -84 89c-49 0 -97 -42 -97 -92c0 -44 28 -72 28 -82c0 -11 -11 -18 -21 -18c-35 0 -53 72 -53 99
c0 83 82 145 160 145c89 0 162 -41 162 -139c0 -197 -266 -293 -281 -433c-2 -14 2 -34 -20 -34z" />
    <glyph glyph-name="A" unicode="A" horiz-adv-x="717" 
d="M393 305c-5 43 -9 87 -12 131c-1 24 1 52 -6 75c0 1 -2 6 -4 6c-6 0 -29 -69 -34 -81c-19 -49 -38 -98 -60 -146c39 6 77 10 116 15zM575 -16c-124 0 -161 188 -175 282c-48 -7 -95 -17 -143 -22c-57 -120 -135 -340 -296 -340c-18 0 -71 4 -71 30c0 12 12 17 22 17
l53 -9c154 0 330 521 384 650c15 37 23 70 23 110c0 30 66 52 90 52c15 0 23 -17 23 -31c0 -10 -9 -66 -9 -228c0 -58 1 -116 7 -174c32 4 64 12 96 12c9 0 19 -3 19 -14c0 -15 -13 -22 -25 -26c-24 -9 -60 -10 -86 -14c4 -46 33 -234 93 -234c66 0 153 120 153 120
c3 9 12 17 23 17c7 0 17 -6 17 -14c0 -9 -4 -17 -8 -25c-33 -60 -116 -159 -190 -159z" />
    <glyph glyph-name="B" unicode="B" horiz-adv-x="529" 
d="M246 371c72 -17 232 -66 232 -159c0 -134 -260 -214 -370 -214c-15 -35 -24 -39 -60 -39c-10 0 -33 1 -33 16c0 28 4 56 6 86c3 41 7 82 12 123c16 143 38 285 69 425c-30 -2 -60 -4 -89 -8c-10 -1 -21 -4 -31 -4c-9 0 -15 3 -15 13c0 20 39 25 39 25c33 5 70 10 105 12
c5 23 11 46 18 69c8 25 23 40 47 50c12 5 24 8 37 8c5 0 17 0 17 -8c0 -3 -1 -5 -2 -7c-13 -31 -19 -76 -26 -109c61 0 277 -6 277 -93c0 -79 -165 -169 -233 -186zM146 348c-13 -84 -30 -169 -30 -254c0 -13 0 -26 1 -39c68 6 301 57 301 144c0 97 -198 137 -272 149z
M420 545c0 59 -185 66 -227 66c-15 -72 -26 -145 -38 -217c63 15 265 71 265 151z" />
    <glyph glyph-name="C" unicode="C" horiz-adv-x="605" 
d="M185 291c0 -130 32 -267 190 -267c87 0 168 40 222 108c12 15 21 31 31 47c6 9 15 23 27 23c9 0 16 -8 16 -17s-8 -24 -13 -32c-61 -107 -186 -186 -310 -186c-181 0 -275 159 -275 324c0 183 116 451 330 451c81 0 137 -61 137 -141c0 -36 -10 -143 -39 -164
c-7 -5 -16 -7 -24 -7c-12 0 -25 3 -25 18s17 49 22 66c8 27 13 58 13 86c0 46 -27 86 -76 86c-145 0 -226 -279 -226 -395z" />
    <glyph glyph-name="D" unicode="D" horiz-adv-x="612" 
d="M135 -2c0 0 -3 -43 -60 -43c-10 0 -34 1 -34 16c0 89 12 178 24 266c18 137 41 274 71 409c-28 -3 -61 -11 -86 -11c-9 0 -16 3 -16 13c0 29 109 31 109 31c11 49 35 95 96 95c8 0 16 -6 16 -15c0 -3 -1 -5 -2 -8c-10 -21 -14 -46 -19 -69c202 0 348 -97 348 -313
c0 -224 -318 -371 -447 -371zM139 59c113 0 386 120 386 316c0 169 -138 271 -298 273c-25 -125 -47 -251 -66 -377c-10 -70 -22 -141 -22 -212z" />
    <glyph glyph-name="E" unicode="E" horiz-adv-x="515" 
d="M399 746c67 0 110 -39 110 -107c0 -15 0 -34 -20 -34c-29 0 -13 90 -93 90c-118 0 -197 -238 -220 -331c43 13 194 19 245 19c6 0 41 0 41 -5c0 -19 -16 -33 -33 -37h-2c-29 0 -196 -40 -251 -54c-4 -1 -8 -2 -11 -3c-2 -12 -3 -23 -3 -35c0 -95 29 -234 149 -234
c76 0 145 49 190 107c13 16 22 34 34 50c5 6 9 11 18 11c10 0 17 -8 17 -18c0 -13 -13 -33 -21 -44c-63 -91 -174 -168 -288 -168c-152 0 -200 153 -200 280c0 13 1 20 1 27h-9c-26 0 -62 1 -62 34c0 37 52 42 79 48c33 148 150 404 329 404z" />
    <glyph glyph-name="F" unicode="F" horiz-adv-x="576" 
d="M493 631c0 -37 -5 -74 -9 -111c-7 -58 -16 -115 -26 -172c24 5 49 14 74 14c9 0 17 -4 17 -14c0 -19 -83 -39 -100 -43c-24 -140 -93 -366 -269 -366c-40 0 -68 14 -93 45c-9 12 -18 24 -18 40c3 6 9 11 16 11c26 0 36 -57 92 -57c113 0 167 221 179 309
c-37 -6 -75 -16 -112 -16c-11 0 -17 6 -17 17c0 12 6 24 18 28c11 3 26 2 37 3c27 2 55 6 82 11c17 90 32 181 32 272c0 6 -1 18 -1 18c-64 -9 -129 -9 -193 -22c0 0 -117 -14 -117 -61c0 -54 46 -98 46 -111c0 -5 -4 -10 -16 -12c-6 0 -10 1 -17 6c-37 27 -65 87 -65 132
c0 81 121 98 182 107c120 17 243 20 361 49c19 5 59 22 75 22c13 0 13 -15 13 -24c0 -19 -5 -30 -22 -39c-36 -20 -107 -29 -149 -36z" />
    <glyph glyph-name="G" unicode="G" horiz-adv-x="575" 
d="M78 140c0 -23 3 -71 36 -71c15 0 29 9 41 17c105 68 236 274 269 394c10 37 10 64 57 64c21 0 26 -17 26 -34c0 -62 -7 -124 -14 -186c-19 -159 -81 -575 -296 -575c-35 0 -81 14 -106 38c-10 9 -25 24 -25 39c0 8 6 18 15 18c22 0 49 -56 115 -56c163 0 198 385 204 503
c-53 -99 -180 -287 -305 -287c-83 0 -103 93 -103 159c0 201 189 518 413 518c41 0 128 -19 128 -72c0 -9 -2 -31 -16 -31s-26 23 -73 23c-10 0 -21 0 -31 -1c-30 -3 -58 -10 -85 -25c-129 -70 -250 -289 -250 -435z" />
    <glyph glyph-name="H" unicode="H" horiz-adv-x="710" 
d="M195 212c-64 -35 -161 -138 -161 -214c0 -11 10 -20 21 -20c13 0 25 8 34 17c29 29 101 176 106 217zM751 312c-34 0 -67 21 -104 21c-25 0 -50 -3 -75 -5c-31 -65 -50 -166 -50 -238c0 -39 23 -71 23 -79c0 -10 -13 -19 -22 -19c-44 0 -55 78 -55 124
c0 68 15 138 37 202c-76 -15 -151 -38 -222 -70c0 0 -83 -340 -218 -340c-57 0 -86 38 -86 92c0 134 153 224 224 276c8 6 43 260 43 290c0 39 -10 127 -63 127c-12 0 -21 -7 -33 -7c-8 0 -21 9 -21 18c0 23 80 40 99 40c87 0 108 -94 108 -164c0 -91 -18 -183 -41 -271
c74 24 149 47 226 55c47 122 117 241 183 347c0 0 52 76 78 76c7 0 13 -4 13 -11c0 -26 -32 -51 -46 -71c-66 -95 -127 -223 -164 -333c33 2 65 2 98 2c40 0 94 -1 94 -36c0 -15 -11 -26 -26 -26z" />
    <glyph glyph-name="I" unicode="I" horiz-adv-x="456" 
d="M421 588c0 -185 -85 -627 -330 -627c-29 0 -91 17 -91 54c0 8 10 14 17 14c20 0 28 -30 74 -30c161 0 236 485 236 608c0 27 -6 81 -43 81c-56 0 -136 -94 -160 -140c-19 -37 -32 -92 -32 -134c0 -40 19 -52 19 -74c0 -13 -7 -22 -20 -22c-37 0 -40 65 -40 91
c0 50 16 101 37 147c35 77 142 198 233 198c93 0 100 -95 100 -166z" />
    <glyph glyph-name="J" unicode="J" horiz-adv-x="467" 
d="M363 270h1c6 3 17 5 26 5c7 0 15 -2 15 -11c0 -30 -39 -49 -62 -60c-31 -143 -97 -387 -206 -487c-19 -18 -45 -35 -72 -35c-62 0 -65 68 -65 114v14c1 143 158 347 267 431c28 110 56 222 56 337c0 32 0 110 -47 110c-59 0 -133 -91 -158 -139c-20 -38 -35 -96 -35 -139
c0 -35 18 -49 18 -70c0 -13 -6 -22 -20 -22c-40 0 -43 63 -43 91c0 50 16 101 37 147c36 80 145 198 239 198c92 0 93 -136 93 -201c0 -97 -17 -190 -44 -283zM251 173c-82 -71 -204 -263 -204 -373c0 -11 1 -46 18 -46c59 0 169 356 186 419z" />
    <glyph glyph-name="K" unicode="K" horiz-adv-x="465" 
d="M147 714c26 0 50 -3 50 -35c0 -27 -25 -92 -33 -122c-25 -92 -44 -186 -53 -281l293 377c7 9 17 15 29 15c10 0 24 -5 24 -17c0 -40 -193 -281 -214 -306c0 0 -65 -83 -96 -125c65 -49 145 -86 222 -110c9 -3 18 -6 28 -7c11 -2 52 0 52 -17c0 -30 -22 -51 -52 -51
c-53 0 -256 92 -301 126c-8 -29 -16 -112 -16 -174v-11c0 -20 -4 -36 -31 -48c-7 -3 -15 -5 -23 -5c-21 0 -26 19 -26 36c0 218 30 434 81 645c0 0 23 95 44 106c7 4 15 4 22 4z" />
    <glyph glyph-name="L" unicode="L" horiz-adv-x="572" 
d="M68 -34c-20 0 -43 33 -43 52c0 40 43 33 66 47c88 55 42 511 184 656c22 22 53 43 85 43c76 0 105 -99 105 -160c0 -14 -4 -23 -20 -23c-38 0 -7 131 -78 131c-99 0 -128 -544 -167 -639c80 0 150 -50 230 -50c106 0 149 137 179 137c7 0 17 -6 17 -14
c0 -9 -4 -17 -8 -25c-35 -65 -101 -143 -181 -143c-77 0 -151 29 -228 29c-45 0 -87 -18 -127 -37c-4 -2 -9 -4 -14 -4z" />
    <glyph glyph-name="M" unicode="M" horiz-adv-x="833" 
d="M628 301c0 1 0 2 -1 3c-17 -6 -169 -385 -272 -385c-27 0 -45 21 -54 44c-35 87 -36 235 -36 330c0 1 0 9 -2 9s-4 -8 -5 -10c-44 -144 -118 -390 -282 -390c-18 0 -46 2 -46 26c0 11 8 20 19 20l43 -5c160 0 272 480 272 606c0 28 -2 55 -11 82c-1 2 -1 4 -1 6
c0 24 55 47 75 47c9 0 20 -2 28 -6c16 -8 22 -54 22 -91c0 -17 0 -38 -3 -462c0 -40 1 -105 17 -105c13 0 32 32 39 42c29 46 54 94 79 142c37 71 72 142 105 215c15 34 35 68 43 104c5 23 9 63 33 73c7 3 17 5 24 5c23 0 23 -25 23 -42c0 -30 -5 -60 -10 -90
c-14 -89 -24 -179 -24 -270c0 -29 6 -123 46 -123c55 0 93 85 120 123c5 8 12 17 23 17c7 0 16 -6 16 -14c0 -9 -4 -17 -8 -25c-25 -53 -104 -159 -168 -159c-103 0 -104 212 -104 283z" />
    <glyph glyph-name="N" unicode="N" horiz-adv-x="752" 
d="M14 -98c-17 0 -70 2 -70 26c0 13 11 20 23 20l45 -3c165 0 206 361 221 516c3 28 3 50 3 77c0 17 -8 32 -8 48c0 28 49 54 73 54c23 0 29 -23 32 -41l3 -24c5 -30 12 -60 20 -89c19 -71 124 -427 200 -427c16 0 27 33 31 45c32 97 50 321 50 321c4 65 7 126 7 186
c0 21 7 32 29 32c18 0 19 -21 19 -34c0 -96 -25 -629 -142 -629c-160 0 -277 417 -277 417s-42 -495 -259 -495z" />
    <glyph glyph-name="O" unicode="O" horiz-adv-x="613" 
d="M218 -40c-156 0 -200 153 -200 282c0 190 103 489 295 489c22 0 42 -10 64 -10l45 3c108 0 141 -210 141 -291c0 -189 -124 -473 -345 -473zM373 665c-146 0 -263 -276 -263 -446c0 -93 27 -193 139 -193c166 0 261 250 261 388c0 82 -29 251 -137 251z" />
    <glyph glyph-name="P" unicode="P" horiz-adv-x="452" 
d="M452 454c0 -166 -212 -276 -354 -300c-10 -30 -18 -106 -18 -138c0 -36 9 -59 -30 -78c-7 -3 -16 -5 -23 -5c-21 0 -26 19 -26 36c0 200 26 367 67 549c0 1 22 90 47 104c8 5 18 6 27 6c24 0 42 -9 42 -35c0 -27 -20 -81 -28 -110c-26 -96 -45 -195 -54 -294
c112 27 285 100 285 237c0 123 -139 212 -250 223c-17 2 -74 1 -74 27c0 5 2 11 4 16c11 25 18 27 45 27c141 0 340 -106 340 -265z" />
    <glyph glyph-name="Q" unicode="Q" horiz-adv-x="613" 
d="M177 430c0 -140 156 -207 236 -300c27 18 51 70 63 100c23 58 34 121 34 184c0 82 -29 251 -137 251c-115 0 -196 -155 -196 -235zM368 87c-18 23 -49 42 -73 59c-70 49 -152 109 -168 199c-14 -40 -21 -83 -21 -126c0 -79 36 -188 131 -188c43 0 104 22 131 56zM466 -90
c-20 0 -21 19 -21 49c0 42 -14 64 -40 95c-49 -50 -121 -92 -193 -92c-157 0 -198 183 -198 308c0 132 57 277 145 375c38 43 94 87 154 87c21 -2 40 -10 64 -10c16 0 30 3 45 3c34 0 65 -31 83 -58c45 -67 59 -155 59 -234c0 -81 -17 -164 -50 -238
c-17 -38 -67 -105 -67 -105c27 -34 43 -77 43 -121c0 -15 -3 -59 -24 -59z" />
    <glyph glyph-name="R" unicode="R" horiz-adv-x="451" 
d="M451 482c0 -149 -192 -275 -324 -298c70 -52 154 -86 237 -111c9 -3 18 -6 27 -7c11 -2 53 0 53 -17c0 -30 -22 -51 -52 -51c-53 0 -256 92 -301 126c-9 -27 -12 -79 -12 -108l1 -30c0 -20 -4 -35 -31 -48c-7 -3 -15 -5 -23 -5c-21 0 -26 19 -26 36c0 201 18 353 67 549
c0 0 22 91 48 105c8 4 17 5 26 5c24 0 42 -9 42 -35s-27 -92 -35 -122c-23 -83 -39 -168 -47 -254c112 27 285 100 285 237c0 120 -148 185 -250 195c-17 2 -74 1 -74 27c0 5 2 11 4 16c11 25 18 27 45 27c11 0 22 -1 33 -2c129 -15 307 -80 307 -235z" />
    <glyph glyph-name="S" unicode="S" horiz-adv-x="557" 
d="M425 567c0 33 66 62 66 93c0 20 -36 20 -49 20c-23 0 -46 -1 -68 -5c-63 -11 -169 -63 -169 -138c0 -124 279 -220 279 -377c0 -154 -242 -183 -356 -183c-18 0 -35 1 -53 3c-17 2 -75 3 -75 29c0 22 14 22 32 22c33 0 65 -13 98 -13c72 0 282 22 282 121
c0 112 -301 206 -301 386c0 158 235 188 353 188c37 0 108 -8 108 -58c0 -25 -12 -50 -30 -67c-19 -18 -64 -46 -91 -46c-15 0 -26 10 -26 25z" />
    <glyph glyph-name="T" unicode="T" horiz-adv-x="567" 
d="M455 631c2 -19 2 -37 2 -56c0 -164 -34 -636 -264 -636c-41 0 -70 15 -96 45c-10 11 -20 24 -21 40c3 6 8 11 15 11c25 0 40 -57 96 -57c152 0 174 451 174 561c0 27 0 54 -4 81c-63 -9 -128 -12 -191 -22c-25 -4 -113 -17 -113 -51c0 -64 55 -107 55 -122
c0 -9 -6 -11 -13 -11s-14 2 -20 6c-39 26 -75 84 -75 132c0 82 114 98 175 107c118 17 241 19 357 49c18 5 58 22 73 22s15 -21 15 -31c0 -16 -6 -24 -19 -32c-29 -17 -108 -24 -146 -36z" />
    <glyph glyph-name="U" unicode="U" horiz-adv-x="595" 
d="M581 608c0 -19 -33 -115 -40 -144c-32 -140 -54 -283 -62 -427c0 -24 1 -39 1 -53c0 -17 -4 -38 -26 -38c-29 0 -30 105 -30 136c0 82 4 163 14 244c-52 -101 -176 -317 -306 -317c-102 0 -106 134 -106 207c0 108 25 282 40 326c0 0 26 89 56 102c8 4 17 4 26 4
c19 0 38 -3 38 -27c0 -7 -2 -13 -4 -19c-37 -123 -60 -284 -60 -411c0 -34 1 -104 45 -104c102 0 264 329 305 415c9 19 26 48 30 68c7 31 14 63 54 63c15 0 25 -10 25 -25z" />
    <glyph glyph-name="V" unicode="V" horiz-adv-x="601" 
d="M0 600c0 20 29 57 50 57c15 0 32 -20 42 -30c21 -22 37 -48 53 -74c76 -126 124 -267 155 -410c11 36 31 69 49 102c34 63 70 126 106 188c40 69 79 142 125 211c0 0 25 40 40 40c14 0 31 -13 31 -28c0 -7 -6 -13 -10 -18c-38 -48 -66 -104 -97 -157
c-57 -98 -112 -198 -165 -298c-21 -39 -58 -100 -69 -141c-10 -35 -2 -62 -50 -62c-32 0 -29 36 -33 58c-27 165 -94 401 -205 531c-6 7 -22 22 -22 31z" />
    <glyph glyph-name="W" unicode="W" horiz-adv-x="854" 
d="M72 325c0 107 -17 217 -50 318c0 0 -8 19 -8 30c0 22 21 26 38 26c31 0 48 -20 57 -47c6 -19 10 -34 15 -51c23 -87 38 -175 38 -265c0 -28 -2 -56 -5 -84c27 62 67 119 104 175c26 40 53 80 80 120c20 28 59 91 92 91c24 0 52 -11 52 -39c0 -18 -5 -35 -8 -53
c-7 -39 -10 -78 -10 -117c0 -62 16 -368 111 -368c115 0 195 412 195 505c0 36 -4 72 -11 107c-2 8 -4 15 -4 23c0 13 11 19 23 19c38 0 42 -118 42 -145c0 -139 -74 -589 -272 -589c-160 0 -181 346 -181 455c0 22 0 44 4 65c-66 -65 -162 -252 -206 -340
c-22 -43 -76 -183 -116 -183c-20 0 -39 5 -39 29c0 9 8 24 8 24c44 88 51 197 51 294z" />
    <glyph glyph-name="X" unicode="X" horiz-adv-x="630" 
d="M393 374c10 -60 74 -345 144 -345l23 6c10 0 17 -8 17 -18c0 -38 -57 -47 -85 -47c-6 0 -13 0 -19 2c-74 22 -145 221 -160 292c0 0 -206 -316 -285 -316c-21 0 -42 17 -42 39c0 33 38 35 63 35c43 0 214 263 246 310c-7 36 -14 73 -22 109c-12 52 -35 157 -104 157
c-100 0 -128 -74 -153 -74c-12 0 -19 11 -19 22c0 22 19 39 33 54c46 50 98 84 168 84c123 0 156 -150 176 -245c41 58 172 236 244 236c12 0 15 -6 15 -17c0 -13 -4 -19 -13 -28c-18 -18 -41 -31 -60 -49c-64 -61 -117 -134 -167 -207z" />
    <glyph glyph-name="Y" unicode="Y" horiz-adv-x="588" 
d="M432 367c-46 -108 -167 -354 -304 -354c-108 0 -116 152 -116 230c0 106 0 217 31 326c0 0 24 88 52 101c9 5 20 5 30 5c19 0 34 -8 34 -29c0 -6 -2 -11 -3 -17c-34 -129 -48 -273 -48 -406c0 -35 0 -132 51 -132c103 0 255 348 291 434c8 19 26 54 28 72c0 0 6 64 40 64
h17c20 0 25 -13 25 -29v-5c-4 -48 -9 -95 -15 -140c-22 -178 -107 -745 -353 -745c-37 0 -75 16 -102 40c-10 9 -27 29 -27 42c0 9 7 15 16 15c20 0 52 -54 115 -54c37 0 71 20 93 49c89 116 137 387 145 533z" />
    <glyph glyph-name="Z" unicode="Z" horiz-adv-x="548" 
d="M451 -15c-11 0 -23 1 -34 3c-15 2 -30 3 -46 3h-79c-66 0 -133 -2 -197 -14l-6 -1c-20 0 -41 21 -41 41s14 32 29 44l2 1c20 17 51 61 69 84c39 50 299 386 299 414c0 8 -29 10 -61 10h-107c-66 0 -135 -3 -183 -53c-8 -8 -14 -12 -25 -12s-27 5 -27 19
c0 27 38 101 63 113c3 2 7 3 11 3c3 0 5 -1 8 -2h401c11 0 21 -5 21 -18c0 -21 -21 -46 -33 -62c-21 -29 -39 -59 -59 -89c-51 -75 -103 -149 -159 -220c-54 -68 -109 -135 -165 -202l177 6c68 2 129 -3 179 50c8 8 15 12 26 12s26 -6 26 -19c0 -26 -39 -95 -63 -106
c-9 -4 -16 -5 -26 -5z" />
    <glyph glyph-name="asciicircum" unicode="^" horiz-adv-x="527" 
d="M417 593l-153 151l-153 -151h-51l177 188h54l176 -188h-50z" />
    <glyph glyph-name="underscore" unicode="_" horiz-adv-x="456" 
d="M-18 -102v35h492v-35h-492z" />
    <glyph glyph-name="quoteleft" unicode="&#x2018;" horiz-adv-x="197" 
d="M137 641c0 -12 -37 -42 -37 -104c0 -14 5 -29 5 -42c0 -22 -18 -43 -41 -43c-22 0 -34 12 -34 32c0 6 1 20 2 26c4 35 60 140 96 140c6 0 9 -3 9 -9z" />
    <glyph glyph-name="a" unicode="a" 
d="M476 162c0 -12 -15 -31 -22 -41c-37 -52 -110 -143 -180 -143c-66 0 -74 108 -74 155c-26 -41 -87 -132 -140 -132c-49 0 -60 66 -60 104c0 105 109 288 226 288c14 0 33 -17 33 -31c0 -6 -5 -9 -10 -12c-36 -21 -69 -44 -98 -74c-52 -53 -85 -121 -85 -196
c0 -8 1 -24 13 -24c45 0 129 177 148 218c7 15 15 30 34 30c10 0 23 -3 23 -16c0 -14 -13 -43 -18 -58c-11 -34 -15 -76 -15 -111c0 -21 1 -98 32 -98c47 0 122 99 149 135c0 0 14 25 28 25c12 0 16 -8 16 -19z" />
    <glyph glyph-name="b" unicode="b" horiz-adv-x="411" 
d="M309 320c15 -22 22 -48 22 -75c0 -77 -36 -157 -91 -211c-29 -29 -71 -57 -114 -57c-93 0 -106 127 -106 195c0 209 56 408 131 618c12 33 22 44 55 59c11 5 23 10 35 10c15 0 21 -10 21 -24c0 -28 -19 -73 -29 -99c-47 -119 -88 -246 -108 -373
c-10 -63 -24 -128 -24 -192c0 -30 1 -152 51 -152c17 0 32 12 43 23c39 37 77 121 77 175c0 65 -42 88 -101 88c-12 0 -23 17 -23 28c0 20 21 28 38 28c100 3 141 11 184 15c11 0 21 -10 21 -21c0 -25 -63 -33 -82 -35z" />
    <glyph glyph-name="c" unicode="c" horiz-adv-x="369" 
d="M150 -22c-92 0 -129 91 -129 170c0 104 66 253 187 253c50 0 81 -23 81 -76c0 -31 -8 -85 -49 -85c-6 0 -11 3 -11 10c0 15 18 39 18 68c0 18 -1 39 -24 39c-76 0 -118 -161 -118 -220c0 -51 20 -104 80 -104c89 0 160 69 203 141c6 10 17 26 30 26c9 0 16 -7 16 -16
c0 -7 -4 -14 -8 -21c-56 -101 -158 -185 -276 -185z" />
    <glyph glyph-name="d" unicode="d" horiz-adv-x="506" 
d="M255 135c-37 -41 -124 -126 -182 -126c-43 0 -60 60 -60 94c0 108 82 248 186 248c20 0 38 -8 51 -23c0 143 79 474 191 474c48 0 56 -73 56 -108c0 -140 -103 -378 -168 -504c0 -29 2 -155 43 -155c92 0 158 170 185 170c12 0 17 -7 17 -16c0 -14 -12 -32 -20 -44
c-45 -67 -112 -162 -198 -162c-69 0 -92 99 -101 152zM323 283v-10c53 113 131 310 131 434c0 5 0 28 -10 28c-56 0 -121 -359 -121 -452zM247 284c-90 0 -178 -128 -178 -211c0 -7 0 -20 10 -20c42 0 152 111 170 145c-2 29 -2 57 -2 86z" />
    <glyph glyph-name="e" unicode="e" horiz-adv-x="321" 
d="M120 -13c-79 0 -111 65 -111 136c0 90 73 281 181 281c36 0 56 -25 56 -60c0 -67 -94 -173 -155 -195c-3 -14 -5 -28 -5 -42c0 -45 18 -73 65 -73c84 0 151 72 191 139c6 10 16 26 30 26c6 0 14 -4 14 -11c0 -13 -3 -19 -9 -30c-52 -91 -148 -171 -257 -171zM185 357
c-40 0 -85 -135 -91 -170c43 26 108 94 108 147c0 11 -4 23 -17 23z" />
    <glyph glyph-name="f" unicode="f" horiz-adv-x="349" 
d="M232 228l-31 1c50 -45 63 -146 63 -209c0 -98 -36 -281 -164 -281c-85 0 -85 194 -85 251c0 278 50 541 150 800c6 15 12 30 23 42c15 17 55 35 78 35c18 0 25 -14 25 -30c0 -13 -4 -24 -9 -35c-18 -36 -36 -72 -55 -115c-56 -129 -101 -264 -123 -403
c22 -8 74 -10 98 -10c17 0 33 1 49 4c10 2 20 5 31 5c8 0 17 -1 17 -12c0 -38 -35 -43 -67 -43zM89 209c-14 -93 -27 -187 -27 -281c0 -28 4 -151 42 -151c75 0 88 172 88 217c0 81 -26 175 -103 215z" />
    <glyph glyph-name="g" unicode="g" horiz-adv-x="472" 
d="M311 360c-62 0 -118 -36 -159 -79c-37 -39 -88 -115 -88 -171c0 -21 7 -39 31 -39c62 0 173 146 195 200c10 23 31 52 59 52c24 0 37 -16 37 -39c0 -172 -16 -647 -262 -647c-32 0 -58 13 -74 41c-3 6 -6 12 -6 19c0 12 9 24 22 24c25 0 17 -43 54 -43
c128 0 179 347 179 444c0 27 0 54 -3 81c-38 -64 -129 -184 -210 -184c-55 0 -73 46 -73 94c0 73 43 154 94 205c50 50 115 79 186 79c28 0 109 -18 109 -55c0 -6 -6 -10 -11 -10c-13 0 -43 28 -80 28z" />
    <glyph glyph-name="h" unicode="h" horiz-adv-x="544" 
d="M321 351c-44 0 -195 -282 -219 -333l-1 -3c-11 -23 -27 -56 -56 -56s-34 38 -34 60c0 34 7 69 11 103c14 111 63 765 211 765c44 0 54 -61 54 -94c0 -149 -51 -292 -117 -423c-16 -32 -34 -62 -50 -93c-8 -16 -26 -137 -30 -164c37 79 157 299 251 299
c45 0 57 -54 57 -90l-19 -251c0 -19 1 -45 27 -45c62 0 127 97 162 149c6 9 13 22 24 22c12 0 15 -10 15 -20c0 -6 -4 -11 -6 -16c-39 -77 -139 -195 -233 -195c-53 0 -53 93 -53 137c0 72 9 144 16 224c0 6 0 24 -10 24zM238 836c-62 0 -120 -404 -124 -472
c60 109 136 301 136 425c0 9 0 47 -12 47z" />
    <glyph glyph-name="i" unicode="i" horiz-adv-x="263" 
d="M98 119c0 -23 1 -91 35 -91c54 0 132 115 162 162c6 9 14 21 25 21c13 0 13 -12 13 -22c0 -13 -19 -40 -27 -51c-38 -54 -123 -160 -194 -160c-79 0 -91 113 -91 171c0 37 10 88 21 123c12 36 30 64 72 64c15 0 23 -6 23 -22c0 -27 -23 -76 -30 -106
c-6 -29 -9 -59 -9 -89zM138 489c21 0 35 -18 35 -38c0 -26 -21 -53 -48 -53c-21 0 -34 18 -34 38c0 25 20 53 47 53z" />
    <glyph glyph-name="j" unicode="j" horiz-adv-x="230" 
d="M75 62l1 45c0 29 -1 58 -2 86c-10 -26 -59 -112 -89 -112c-8 0 -13 5 -13 13c0 9 4 15 9 22c3 5 7 9 10 13c36 51 59 92 71 144c5 22 19 82 62 82c25 0 27 -33 27 -56c0 -176 -7 -495 -139 -629c-28 -29 -69 -55 -111 -55c-60 0 -87 55 -87 108c0 137 140 258 243 327z
M70 19c-77 -62 -213 -190 -213 -299c0 -25 11 -58 41 -58c102 0 161 277 172 357zM63 459c0 24 16 49 42 49s42 -25 42 -49s-16 -50 -42 -50s-42 26 -42 50z" />
    <glyph glyph-name="k" unicode="k" horiz-adv-x="395" 
d="M107 143c-7 -41 -18 -136 -18 -203c0 -18 -1 -47 -26 -47c-17 0 -23 13 -26 28c-9 48 -9 115 -9 182c0 122 11 244 30 365c14 90 29 182 56 270c12 40 36 76 82 76c17 0 25 -10 25 -27c0 -15 -5 -30 -10 -44c-14 -39 -24 -80 -42 -153c-27 -114 -48 -229 -61 -345
c58 61 121 116 182 174c9 8 23 24 36 24c11 0 21 -12 21 -23c0 -15 -16 -28 -27 -37c-69 -56 -133 -117 -197 -178c27 -10 51 -25 76 -39c41 -23 83 -45 121 -72c14 -10 31 -26 31 -45c0 -12 -12 -14 -21 -14c-11 0 -21 5 -31 10l-135 71c-19 10 -37 20 -57 27z" />
    <glyph glyph-name="l" unicode="l" horiz-adv-x="299" 
d="M137 -39c-111 0 -122 238 -122 316c0 139 21 279 76 407c21 48 78 147 138 147c47 0 60 -52 60 -90c0 -125 -65 -303 -125 -412c-14 -27 -32 -51 -48 -77c-5 -8 -14 -20 -17 -29c-4 -11 -4 -32 -4 -44c0 -39 8 -158 63 -158c49 0 117 83 142 122l26 41c5 8 11 14 21 14
c11 0 14 -9 14 -18c0 -12 -7 -24 -14 -35l-1 -1c-39 -65 -126 -183 -209 -183zM232 783c-42 0 -72 -100 -83 -137c-29 -96 -57 -206 -57 -302c0 -10 0 -19 1 -29c65 109 154 304 154 431c0 9 0 37 -15 37z" />
    <glyph glyph-name="m" unicode="m" horiz-adv-x="793" 
d="M304 5c-32 0 -36 144 -36 232v62c0 6 0 21 -10 21c-41 0 -179 -249 -200 -295c-7 -15 -17 -30 -36 -30c-13 0 -20 10 -20 22c0 61 56 350 82 399c14 26 50 40 78 40c15 0 21 -10 21 -24c0 -28 -25 -78 -36 -105c-15 -36 -24 -75 -30 -114c0 0 108 171 162 171
c32 0 42 -46 42 -75l-2 -141s-1 -52 8 -52c4 0 12 14 14 18c24 40 52 78 79 116c32 45 85 135 147 135c43 0 62 -46 62 -83c0 -77 -14 -154 -14 -231c0 -19 0 -54 27 -54c45 0 122 84 148 119c7 9 18 26 31 26c12 0 14 -12 14 -21c0 -7 -6 -15 -10 -20
c-39 -54 -140 -157 -210 -157c-66 0 -69 86 -69 134c0 60 9 120 9 181c0 11 0 41 -17 41c-48 0 -177 -249 -207 -297c-6 -10 -14 -18 -27 -18z" />
    <glyph glyph-name="n" unicode="n" horiz-adv-x="451" 
d="M22 -36c-14 0 -21 12 -21 25c0 98 26 206 46 302c6 31 11 63 18 94c5 24 33 48 58 48c23 0 30 -13 30 -34c0 -34 -14 -75 -26 -107c-14 -37 -22 -76 -27 -115c0 0 122 178 174 178c39 0 40 -68 40 -97v-140c0 -23 1 -60 32 -60c53 0 115 94 138 138c5 9 13 23 24 23
c10 0 17 -11 17 -20c0 -5 -5 -15 -7 -20c-29 -62 -117 -170 -192 -170c-62 0 -73 67 -73 117v15l4 114c0 5 -1 20 -9 20c-7 0 -18 -11 -23 -16c-33 -32 -63 -78 -87 -117c-29 -47 -52 -96 -75 -146c-8 -16 -22 -32 -41 -32z" />
    <glyph glyph-name="o" unicode="o" horiz-adv-x="368" 
d="M25 114c0 100 68 265 187 265c74 0 94 -77 94 -137c0 -88 -31 -184 -107 -235c-23 -15 -50 -26 -78 -26c-72 0 -96 73 -96 133zM212 313c-75 0 -115 -141 -115 -201c0 -32 9 -82 50 -82c17 0 33 9 46 19c50 39 71 113 71 174c0 33 -9 90 -52 90z" />
    <glyph glyph-name="p" unicode="p" horiz-adv-x="469" 
d="M107 70v-5c2 2 4 3 7 3c12 0 21 -14 49 -14c81 0 147 178 147 245c0 20 -5 49 -30 49c-46 0 -133 -113 -155 -153c-8 -13 -15 -97 -18 -125zM261 -17c-47 0 -128 10 -157 52l-2 -25c-11 -126 -30 -334 -71 -435c-11 -27 -35 -66 -69 -66c-46 0 -55 70 -55 103
c0 150 64 354 112 498c4 12 5 40 20 193c2 24 -1 78 34 78c27 0 51 -37 51 -61c0 -23 -5 -46 -7 -69c35 47 111 139 175 139s82 -56 82 -110c0 -72 -35 -179 -88 -230c-13 -13 -29 -24 -47 -27c10 -2 20 -3 30 -3c93 0 176 75 219 152c5 8 11 25 23 25c11 0 17 -7 17 -18
c0 -12 -3 -19 -9 -28c-59 -97 -141 -168 -258 -168zM32 14c-40 -96 -82 -303 -82 -407c0 -8 0 -45 12 -45c17 0 32 97 34 110c18 113 29 228 36 342z" />
    <glyph glyph-name="q" unicode="q" horiz-adv-x="455" 
d="M228 -65c-16 -69 -31 -138 -43 -208c-9 -50 -17 -100 -17 -151c0 -8 0 -41 11 -41c7 0 13 13 16 18c30 60 40 212 40 282c0 33 -1 67 -7 100zM112 -396c0 134 31 267 68 395c18 62 41 123 58 186c-22 -46 -93 -167 -141 -184c-10 -3 -20 -6 -31 -6c-47 0 -59 54 -59 92
c0 103 51 200 125 270c30 28 70 59 113 59c17 0 30 -6 30 -25c0 -24 -32 -36 -48 -48c-64 -46 -158 -175 -158 -256c0 -11 1 -37 17 -37c39 0 130 195 152 233c10 17 25 40 47 40c16 0 41 -11 41 -30c0 -34 -18 -75 -26 -108c-13 -51 -22 -103 -34 -154c10 -3 20 -5 31 -5
c76 0 141 78 174 140c5 10 13 30 27 30c13 0 16 -10 16 -21c0 -15 -10 -31 -17 -44c-42 -72 -121 -152 -211 -152c-6 0 -12 0 -18 1c10 -43 10 -90 10 -134c0 -85 -8 -232 -48 -307c-12 -22 -36 -60 -64 -60c-46 0 -54 92 -54 125z" />
    <glyph glyph-name="r" unicode="r" horiz-adv-x="390" 
d="M168 213c0 33 -30 53 -59 62c-21 -58 -52 -134 -96 -179c-7 -7 -16 -15 -27 -15c-8 0 -13 5 -13 13s4 15 9 22c38 55 78 113 86 181c-18 24 -26 54 -26 84c0 31 19 112 59 112c28 0 33 -58 33 -78c0 -16 -1 -32 -3 -48c31 -47 119 -51 119 -140c0 -13 -2 -26 -5 -39
c-11 -47 -20 -93 -20 -141c0 -13 0 -37 19 -37c46 0 128 104 154 143c6 9 15 22 26 22c12 0 14 -11 14 -21c0 -8 -4 -15 -8 -21c-32 -52 -133 -170 -197 -170c-66 0 -70 93 -70 140c0 37 5 73 5 110z" />
    <glyph glyph-name="s" unicode="s" horiz-adv-x="389" 
d="M160 328c32 -77 94 -154 94 -240c0 -27 -7 -54 -23 -77c46 0 140 103 166 142c6 9 15 22 26 22c12 0 15 -10 15 -20c0 -7 -6 -15 -9 -21c-75 -118 -161 -187 -306 -187c-38 0 -89 5 -118 33c-6 6 -11 13 -11 22c0 10 7 15 16 15c8 0 20 -9 18 -7c21 -16 45 -19 71 -19
c53 0 81 36 81 87c0 60 -37 145 -70 194c-19 -54 -58 -136 -98 -176c-6 -6 -16 -16 -26 -16c-8 0 -14 6 -14 14c0 10 6 18 12 26c45 56 80 122 102 191c-6 17 -9 35 -9 53c0 39 26 117 74 117c25 0 32 -34 32 -54c0 -33 -11 -68 -23 -99z" />
    <glyph glyph-name="t" unicode="t" horiz-adv-x="309" 
d="M230 474c-16 -61 -50 -126 -83 -180c-12 -21 -42 -61 -42 -61c-1 -5 -2 -17 -2 -22c0 -40 9 -190 63 -190c62 0 135 106 165 154c5 9 15 23 26 23c8 0 14 -7 14 -15c0 -15 -8 -28 -16 -41c-38 -64 -127 -182 -208 -182c-104 0 -124 212 -124 287c0 65 4 132 17 196
c-7 -2 -14 -3 -21 -3c-16 0 -24 8 -24 24c0 27 30 31 51 33c22 72 80 271 174 271c42 0 45 -60 45 -90c0 -52 -7 -107 -22 -157c23 3 45 8 68 8c9 0 14 -3 14 -13s-5 -14 -13 -19c-10 -6 -67 -20 -82 -23zM218 718c-46 0 -95 -173 -100 -213c27 4 55 5 82 11
c16 51 28 119 28 172c0 6 0 30 -10 30zM112 451c-12 -52 -13 -107 -17 -160c30 38 75 125 88 172c-24 -5 -48 -5 -71 -12z" />
    <glyph glyph-name="u" unicode="u" horiz-adv-x="500" 
d="M19 130c0 60 8 126 27 183c10 30 37 49 68 49c15 0 23 -7 23 -22c0 -11 -4 -22 -7 -33c-21 -66 -47 -167 -47 -236c0 -13 0 -40 19 -40c67 0 187 205 213 264c11 25 20 64 54 64c12 0 22 -3 22 -17c0 -13 -6 -26 -10 -38c-22 -58 -40 -155 -40 -217c0 -19 3 -71 30 -71
c40 0 132 128 155 165c6 10 19 28 30 28c12 0 14 -9 14 -19c0 -7 -4 -15 -7 -21c-32 -63 -137 -197 -213 -197c-61 0 -66 97 -66 141c0 13 0 25 2 38c-39 -56 -120 -162 -195 -162c-71 0 -72 90 -72 141z" />
    <glyph glyph-name="v" unicode="v" horiz-adv-x="399" 
d="M0 321c0 17 22 39 39 39c13 0 22 -8 30 -17c52 -56 94 -167 111 -241c47 84 90 172 146 251c6 8 14 21 26 21s27 -10 27 -23c0 -6 -4 -10 -7 -14c-31 -41 -175 -284 -185 -323c0 0 -6 -34 -30 -34c-26 0 -30 37 -30 37c-18 72 -69 225 -113 283c0 0 -14 13 -14 21z" />
    <glyph glyph-name="w" unicode="w" horiz-adv-x="578" 
d="M518 236c0 -82 -20 -275 -133 -275c-23 0 -43 11 -59 27c-34 34 -47 152 -49 200c0 0 -146 -187 -209 -187c-50 0 -54 51 -54 89c0 56 46 202 77 249c10 15 28 21 45 21c14 0 32 -5 32 -22c0 -7 -4 -14 -7 -20c-34 -65 -69 -165 -69 -239c0 -4 0 -14 6 -14
c16 0 47 31 58 42c35 35 67 74 95 115c11 17 24 41 34 55c8 12 24 13 37 13c27 0 29 -25 29 -46c0 -34 18 -228 57 -228c53 0 72 168 72 208c0 15 -1 52 -7 64c-8 16 -18 18 -18 39c0 13 9 28 23 28c37 0 40 -93 40 -119z" />
    <glyph glyph-name="x" unicode="x" horiz-adv-x="426" 
d="M244 185c8 -24 40 -121 69 -121c60 0 120 81 145 129c5 10 15 27 28 27c10 0 15 -11 15 -20c0 -6 -5 -15 -7 -20c-32 -66 -115 -180 -196 -180c-56 0 -86 64 -105 108l-90 -139c-4 -6 -10 -9 -17 -9c-11 0 -25 9 -25 21c0 20 97 149 114 173l-34 118c-1 5 -6 24 -13 24
c-16 0 -72 -160 -98 -160c-9 0 -16 5 -16 15c0 8 3 16 7 23c19 38 72 182 118 182c57 0 90 -128 90 -128c32 47 61 96 92 142c4 6 9 12 17 12c9 0 15 -8 15 -16s-3 -14 -7 -21c-31 -55 -68 -107 -102 -160z" />
    <glyph glyph-name="y" unicode="y" horiz-adv-x="455" 
d="M117 -414c-61 0 -84 55 -84 108c0 134 159 266 262 334c1 19 1 38 1 57c0 52 -1 103 -3 155c-33 -55 -165 -206 -231 -206c-45 0 -54 44 -54 80c0 60 17 123 35 180c4 13 7 26 13 38c8 16 19 28 38 28c22 0 43 -18 43 -41c0 -17 -15 -44 -21 -60
c-14 -35 -42 -121 -42 -157c0 -6 0 -21 10 -21c16 0 58 42 70 54c54 55 98 120 146 181c9 11 20 28 36 28c7 0 14 -3 20 -7c16 -11 16 -87 16 -111c0 -179 -6 -386 -104 -538c-33 -51 -87 -102 -151 -102zM290 -15c-85 -68 -213 -175 -213 -293c0 -25 7 -64 39 -64
s63 37 81 60c52 70 84 210 93 297z" />
    <glyph glyph-name="z" unicode="z" horiz-adv-x="377" 
d="M19 117c-9 0 -16 8 -16 17c0 11 6 20 12 28c15 22 62 114 65 138c0 0 -6 -1 -14 -1c-21 0 -59 6 -59 46c0 34 26 55 59 55c35 0 52 -30 53 -62c35 17 74 31 114 31c51 0 84 -27 84 -80c0 -69 -79 -140 -119 -192c72 -47 97 -132 97 -214c0 -124 -85 -297 -227 -297
c-54 0 -94 32 -94 88c0 129 121 240 228 294c-12 37 -40 64 -68 89c-10 8 -24 20 -24 34c0 11 11 21 19 28c41 37 108 111 108 169c0 26 -19 34 -42 34c-24 0 -57 -9 -79 -19c0 0 -5 -23 -9 -34c-8 -26 -60 -152 -88 -152zM84 330c0 21 -4 41 -23 41c-13 0 -21 -9 -21 -22
c0 -16 20 -20 33 -20c4 0 7 0 11 1zM213 -85c-91 -42 -198 -123 -198 -234c0 -27 10 -52 41 -52c34 0 70 30 91 54c41 46 69 137 69 199c0 11 -1 22 -3 33z" />
    <glyph glyph-name="bar" unicode="|" horiz-adv-x="161" 
d="M60 -78v787h41v-787h-41z" />
    <glyph glyph-name="asciitilde" unicode="~" horiz-adv-x="377" 
d="M243 587c-34 0 -75 42 -110 42c-17 0 -30 -7 -73 -32v37c30 17 48 27 73 27c28 0 60 -25 86 -36c9 -4 17 -6 24 -6c17 0 31 6 74 31v-38c-30 -17 -49 -25 -74 -25z" />
    <glyph glyph-name="exclamdown" unicode="&#xa1;" horiz-adv-x="314" 
d="M79 -200c-38 0 -49 21 -49 56c0 21 5 42 9 61c20 89 39 178 58 266c11 52 22 104 32 156c3 18 7 37 30 37c14 0 15 -20 15 -30l-1 -14c-3 -34 -5 -68 -7 -103c-5 -75 -9 -150 -15 -225c-3 -40 -5 -96 -13 -135c-7 -33 -18 -69 -59 -69zM173 577c23 0 41 -16 41 -40
c0 -21 -8 -51 -35 -51c-21 0 -43 18 -43 40c0 27 5 51 37 51z" />
    <glyph glyph-name="sterling" unicode="&#xa3;" horiz-adv-x="626" 
d="M375 342c0 -17 -131 -27 -131 -27c-8 -56 -24 -194 -44 -242c80 0 150 -50 230 -50c106 0 149 137 179 137c7 0 17 -6 17 -14c0 -9 -4 -17 -8 -25c-35 -65 -101 -143 -181 -143c-77 0 -151 29 -228 29c-45 0 -87 -18 -127 -37c-4 -2 -9 -4 -14 -4c-20 0 -43 33 -43 52
c0 39 43 33 66 47c46 27 60 197 66 246h-48c-35 0 -55 3 -55 25c0 18 17 26 33 26c25 0 51 -4 76 -5c17 139 53 407 197 407c76 0 105 -99 105 -160c0 -14 -4 -23 -20 -23c-38 0 -7 131 -78 131c-72 0 -117 -356 -117 -356c33 1 66 3 99 3c12 0 26 -1 26 -17z" />
    <glyph glyph-name="quotesingle" unicode="'" horiz-adv-x="197" 
d="M132 452c-13 0 -16 15 -18 28c-4 26 -14 171 -14 175c0 19 14 35 33 35c18 0 34 -17 34 -35c0 -4 -13 -145 -16 -176c-1 -12 -5 -27 -19 -27z" />
    <glyph glyph-name="quotedblleft" unicode="&#x201c;" horiz-adv-x="317" 
d="M137 641c0 -10 -37 -48 -37 -104c0 -14 5 -28 5 -42c0 -22 -18 -43 -41 -43c-20 0 -34 11 -34 32c0 9 1 18 2 26c4 33 59 140 96 140c6 0 9 -3 9 -9zM257 641c0 -10 -37 -48 -37 -104c0 -14 5 -28 5 -42c0 -22 -18 -43 -41 -43c-20 0 -34 11 -34 32c0 9 1 18 2 26
c4 33 59 140 96 140c6 0 9 -3 9 -9z" />
    <glyph glyph-name="guillemotleft" unicode="&#xab;" horiz-adv-x="581" 
d="M60 171c0 6 3 11 8 14l202 130c10 6 22 11 34 11c8 0 17 -1 17 -11c0 -7 -1 -14 -6 -18l-150 -126l148 -135c5 -4 5 -9 5 -16c0 -11 -9 -16 -18 -16c-11 0 -21 4 -30 10l-202 144c-4 3 -8 7 -8 13zM260 171c0 6 3 11 8 14l202 130c10 6 22 11 34 11c8 0 17 -1 17 -11
c0 -7 -1 -14 -6 -18l-150 -126l148 -135c5 -4 5 -9 5 -16c0 -11 -9 -16 -18 -16c-11 0 -21 4 -30 10l-202 144c-4 3 -8 7 -8 13z" />
    <glyph glyph-name="guilsinglleft" unicode="&#x2039;" horiz-adv-x="381" 
d="M60 171c0 6 3 11 8 14l202 130c10 6 22 11 34 11c8 0 17 -1 17 -11c0 -7 -1 -14 -6 -18l-150 -126l148 -135c5 -4 5 -9 5 -16c0 -11 -9 -16 -18 -16c-11 0 -21 4 -30 10l-202 144c-4 3 -8 7 -8 13z" />
    <glyph glyph-name="guilsinglright" unicode="&#x203a;" horiz-adv-x="381" 
d="M321 171c0 -6 -4 -10 -8 -13l-202 -144c-9 -6 -19 -10 -30 -10c-9 0 -18 5 -18 16c0 7 0 12 5 16l148 135l-150 126c-5 4 -6 11 -6 18c0 10 9 11 17 11c12 0 24 -5 34 -11l202 -130c5 -3 8 -8 8 -14z" />
    <glyph glyph-name="bullet" unicode="&#x2022;" horiz-adv-x="300" 
d="M150 148c-39 0 -68 28 -68 67c0 36 13 84 58 84c36 0 71 -29 71 -66c0 -45 -8 -85 -61 -85z" />
    <glyph glyph-name="quotedblright" unicode="&#x201d;" horiz-adv-x="357" 
d="M220 461c0 12 37 42 37 104c0 14 -5 29 -5 42c0 22 18 43 41 43c22 0 34 -12 34 -32c0 -6 -1 -20 -2 -26c-4 -35 -60 -140 -96 -140c-6 0 -9 3 -9 9zM100 461c0 12 37 42 37 104c0 14 -5 29 -5 42c0 22 18 43 41 43c22 0 34 -12 34 -32c0 -6 -1 -20 -2 -26
c-4 -35 -60 -140 -96 -140c-6 0 -9 3 -9 9z" />
    <glyph glyph-name="guillemotright" unicode="&#xbb;" horiz-adv-x="581" 
d="M521 171c0 -6 -4 -10 -8 -13l-202 -144c-9 -6 -19 -10 -30 -10c-9 0 -18 5 -18 16c0 7 0 12 5 16l148 135l-150 126c-5 4 -6 11 -6 18c0 10 9 11 17 11c12 0 24 -5 34 -11l202 -130c5 -3 8 -8 8 -14zM321 171c0 -6 -4 -10 -8 -13l-202 -144c-9 -6 -19 -10 -30 -10
c-9 0 -18 5 -18 16c0 7 0 12 5 16l148 135l-150 126c-5 4 -6 11 -6 18c0 10 9 11 17 11c12 0 24 -5 34 -11l202 -130c5 -3 8 -8 8 -14z" />
    <glyph glyph-name="ellipsis" unicode="&#x2026;" horiz-adv-x="838" 
d="M141 0c-23 0 -41 16 -41 40c0 22 8 51 35 51c21 0 43 -18 43 -40c0 -27 -5 -51 -37 -51zM441 0c-23 0 -41 16 -41 40c0 22 8 51 35 51c21 0 43 -18 43 -40c0 -27 -5 -51 -37 -51zM741 0c-23 0 -41 16 -41 40c0 22 8 51 35 51c21 0 43 -18 43 -40c0 -27 -5 -51 -37 -51z
" />
    <glyph glyph-name="questiondown" unicode="&#xbf;" horiz-adv-x="502" 
d="M304 521c0 27 5 51 37 51c23 0 41 -16 41 -40c0 -21 -8 -51 -35 -51c-21 0 -43 18 -43 40zM331 406c18 0 20 -27 20 -40c0 -162 -226 -233 -226 -425c0 -45 37 -89 84 -89c49 0 97 42 97 92c0 44 -28 73 -28 82c0 11 11 18 21 18c35 0 53 -71 53 -99
c0 -82 -82 -145 -160 -145c-89 0 -162 42 -162 139c0 197 266 293 281 433c2 15 -2 34 20 34z" />
    <glyph glyph-name="grave" unicode="`" horiz-adv-x="276" 
d="M202 432c-20 0 -67 65 -93 97c-18 22 -49 52 -49 74c0 18 14 32 32 32c32 0 48 -39 62 -65c20 -35 62 -101 62 -123c0 -8 -6 -15 -14 -15z" />
    <glyph glyph-name="acute" unicode="&#xb4;" horiz-adv-x="276" 
d="M74 432c-8 0 -14 7 -14 15c0 7 4 14 7 20l58 102c9 16 18 36 29 51c7 9 18 15 30 15c18 0 32 -14 32 -32c0 -8 -3 -15 -7 -21c-12 -18 -28 -36 -42 -53c-23 -28 -51 -61 -70 -82c0 0 -14 -15 -23 -15z" />
    <glyph glyph-name="circumflex" unicode="&#x2c6;" horiz-adv-x="388" 
d="M199 592c4 0 9 -2 12 -5l108 -125c4 -5 9 -13 9 -21s-4 -13 -10 -13c-5 0 -10 3 -14 6l-105 93l-112 -92c-4 -3 -9 -6 -14 -6c-6 0 -13 5 -13 14c0 8 5 14 9 19l119 125c3 3 7 5 11 5z" />
    <glyph glyph-name="tilde" unicode="&#x2dc;" horiz-adv-x="391" 
d="M257 433c-70 0 -68 55 -109 55c-33 0 -60 -17 -60 -35c0 -7 -3 -15 -14 -15s-14 8 -14 15c0 46 51 82 88 82c60 0 61 -54 109 -54c22 0 45 12 45 29c0 8 4 14 15 14c10 0 14 -7 14 -16c0 -49 -33 -75 -74 -75z" />
    <glyph glyph-name="dieresis" unicode="&#xa8;" horiz-adv-x="338" 
d="M101 436c-23 0 -41 16 -41 40c0 22 8 51 35 51c21 0 43 -18 43 -40c0 -27 -5 -51 -37 -51zM241 436c-23 0 -41 16 -41 40c0 22 8 51 35 51c21 0 43 -18 43 -40c0 -27 -5 -51 -37 -51z" />
    <glyph glyph-name="ring" unicode="&#x2da;" horiz-adv-x="261" 
d="M112 448c-38 0 -52 37 -52 69c0 48 35 115 90 115c39 0 51 -40 51 -72c0 -47 -36 -112 -89 -112zM151 597c-33 0 -52 -63 -52 -89c0 -10 0 -31 14 -31c33 0 58 59 58 86c0 11 -6 34 -20 34z" />
    <glyph glyph-name="AE" unicode="&#xc6;" horiz-adv-x="867" 
d="M655 37c67 0 133 27 198 105c17 20 33 61 52 61c10 0 17 -8 17 -18c0 -13 -14 -34 -21 -44c-64 -91 -174 -168 -288 -168c-159 0 -198 175 -213 293c-48 -7 -95 -17 -143 -22c-58 -121 -135 -340 -296 -340c-18 0 -71 4 -71 30c0 12 12 17 22 17c17 0 34 -9 53 -9
c156 0 329 522 384 650c16 37 23 70 23 110c0 30 65 52 90 52c16 0 23 -23 23 -36v-3c0 -65 -7 -130 -9 -195c57 124 151 246 275 246c67 0 110 -39 110 -107c0 -16 0 -34 -20 -34c-29 0 -13 90 -93 90c-118 0 -215 -255 -237 -345c44 2 232 19 278 19c14 0 28 -1 28 -14
c0 -18 -18 -24 -43 -30c-54 -12 -221 -49 -278 -57c0 -5 -1 -11 -1 -19c0 -68 28 -232 160 -232zM393 305c-7 59 -14 212 -22 212c-11 0 -65 -163 -94 -227c39 6 77 10 116 15z" />
    <glyph glyph-name="OE" unicode="&#x152;" horiz-adv-x="915" 
d="M473 126c-57 -92 -141 -166 -255 -166c-156 0 -200 154 -200 282c0 189 103 489 295 489c22 0 42 -10 64 -10c15 0 30 3 45 3c80 0 114 -113 127 -175c51 92 135 197 250 197c67 0 110 -39 110 -107c0 -15 0 -34 -20 -34c-29 0 -13 90 -93 90c-118 0 -197 -238 -220 -331
c43 13 197 19 249 19c6 0 37 0 37 -5c0 -19 -16 -33 -33 -37h-3c-21 0 -59 -10 -81 -15c-60 -13 -120 -28 -180 -42c-2 -12 -3 -23 -3 -35c0 -95 29 -234 149 -234c76 0 144 49 190 107c17 21 33 61 52 61c10 0 17 -8 17 -18c0 -13 -13 -33 -21 -44
c-64 -91 -173 -168 -288 -168c-107 0 -165 77 -188 173zM507 460c-8 74 -39 205 -134 205c-152 0 -263 -283 -263 -452c0 -91 31 -187 139 -187c104 0 175 96 213 182l-1 26l1 26h-12c-26 0 -59 2 -59 34c0 37 52 42 79 48c9 40 22 80 37 118z" />
    <glyph glyph-name="ae" unicode="&#xe6;" horiz-adv-x="511" 
d="M562 199c6 0 14 -4 14 -11c0 -13 -3 -19 -9 -30c-51 -90 -145 -171 -253 -171c-84 0 -115 70 -115 145c-26 -41 -86 -131 -139 -131c-49 0 -60 66 -60 104c0 105 109 288 226 288c14 0 33 -17 33 -31c0 -6 -5 -9 -10 -12c-104 -60 -183 -152 -183 -270c0 -8 1 -24 13 -24
c45 0 148 218 148 218s12 25 25 29c26 46 70 101 128 101c36 0 56 -25 56 -60c0 -67 -94 -173 -155 -195c-3 -14 -5 -28 -5 -42c0 -43 18 -74 64 -74c84 0 152 74 192 140c6 10 16 26 30 26zM392 334c0 11 -4 23 -17 23c-40 0 -85 -135 -91 -170c43 26 108 94 108 147z" />
    <glyph glyph-name="oe" unicode="&#x153;" horiz-adv-x="571" 
d="M264 77c-29 -49 -83 -96 -143 -96c-72 0 -96 73 -96 133c0 100 68 265 187 265c55 0 82 -45 91 -94c26 52 72 119 137 119c36 0 56 -25 56 -60c0 -67 -94 -173 -155 -195c-3 -14 -5 -28 -5 -42c0 -44 18 -73 65 -73c84 0 151 73 191 139c6 10 16 26 30 26
c6 0 14 -4 14 -11c0 -12 -3 -18 -8 -28c-52 -93 -150 -173 -258 -173c-58 0 -93 35 -106 90zM452 334c0 11 -4 23 -17 23c-40 0 -85 -135 -91 -170c43 26 108 94 108 147zM212 313c-75 0 -115 -142 -115 -201c0 -32 9 -82 50 -82c17 0 33 9 46 19c50 40 71 113 71 174
c0 33 -9 90 -52 90z" />
    <glyph glyph-name="Ydieresis" unicode="&#x178;" horiz-adv-x="588" 
d="M261 705c-23 0 -41 17 -41 40c0 22 8 51 35 51c21 0 43 -17 43 -40c0 -27 -5 -51 -37 -51zM401 705c-23 0 -41 17 -41 40c0 22 8 51 35 51c21 0 43 -17 43 -40c0 -27 -5 -51 -37 -51zM432 367c-46 -108 -167 -354 -304 -354c-108 0 -116 152 -116 230c0 106 0 217 31 326
c0 0 24 88 52 101c9 5 20 5 30 5c19 0 34 -8 34 -29c0 -6 -2 -11 -3 -17c-34 -129 -48 -273 -48 -406c0 -35 0 -132 51 -132c103 0 255 348 291 434c8 19 26 54 28 72c0 0 6 64 40 64h17c20 0 25 -13 25 -29v-5c-4 -48 -9 -95 -15 -140c-22 -178 -107 -745 -353 -745
c-37 0 -75 16 -102 40c-10 9 -27 29 -27 42c0 9 7 15 16 15c20 0 52 -54 115 -54c37 0 71 20 93 49c89 116 137 387 145 533z" />
    <glyph glyph-name="trademark" unicode="&#x2122;" horiz-adv-x="674" 
d="M323 180v268h70l76 -196l74 196h71v-268h-48v215c0 1 -82 -215 -82 -215h-32l-82 215v-215h-47zM144 180v232h-84v36h213v-36h-84v-232h-45z" />
    <glyph glyph-name="zcaron" unicode="&#x17e;" horiz-adv-x="377" 
d="M196 428c-4 0 -10 1 -13 4l-123 126c-5 5 -10 13 -10 21s5 13 12 13c5 0 12 -2 16 -6l118 -93l127 92c5 3 10 6 16 6c7 0 14 -5 14 -14c0 -8 -5 -14 -10 -19l-134 -126c-4 -3 -8 -4 -13 -4zM19 117c-9 0 -16 8 -16 17c0 11 6 20 12 28c15 22 62 114 65 138
c0 0 -6 -1 -14 -1c-21 0 -59 6 -59 46c0 34 26 55 59 55c35 0 52 -30 53 -62c35 17 74 31 114 31c51 0 84 -27 84 -80c0 -69 -79 -140 -119 -192c72 -47 97 -132 97 -214c0 -124 -85 -297 -227 -297c-54 0 -94 32 -94 88c0 129 121 240 228 294c-12 37 -40 64 -68 89
c-10 8 -24 20 -24 34c0 11 11 21 19 28c41 37 108 111 108 169c0 26 -19 34 -42 34c-24 0 -57 -9 -79 -19c0 0 -5 -23 -9 -34c-8 -26 -60 -152 -88 -152zM84 330c0 21 -4 41 -23 41c-13 0 -21 -9 -21 -22c0 -16 20 -20 33 -20c4 0 7 0 11 1zM213 -85
c-91 -42 -198 -123 -198 -234c0 -27 10 -52 41 -52c34 0 70 30 91 54c41 46 69 137 69 199c0 11 -1 22 -3 33z" />
    <glyph glyph-name="Zcaron" unicode="&#x17d;" horiz-adv-x="548" 
d="M326 678c-4 0 -10 1 -13 4l-123 126c-5 5 -10 13 -10 21s5 13 12 13c5 0 12 -2 16 -6l118 -93l127 92c5 3 10 6 16 6c7 0 14 -5 14 -14c0 -8 -5 -14 -10 -19l-134 -126c-4 -3 -8 -4 -13 -4zM451 -15c-11 0 -23 1 -34 3c-15 2 -30 3 -46 3h-79c-66 0 -133 -2 -197 -14
l-6 -1c-20 0 -41 21 -41 41s14 32 29 44l2 1c20 17 51 61 69 84c39 50 299 386 299 414c0 8 -29 10 -61 10h-107c-66 0 -135 -3 -183 -53c-8 -8 -14 -12 -25 -12s-27 5 -27 19c0 27 38 101 63 113c3 2 7 3 11 3c3 0 5 -1 8 -2h401c11 0 21 -5 21 -18c0 -21 -21 -46 -33 -62
c-21 -29 -39 -59 -59 -89c-51 -75 -103 -149 -159 -220c-54 -68 -109 -135 -165 -202l177 6c68 2 129 -3 179 50c8 8 15 12 26 12s26 -6 26 -19c0 -26 -39 -95 -63 -106c-9 -4 -16 -5 -26 -5z" />
    <glyph glyph-name="scaron" unicode="&#x161;" horiz-adv-x="389" 
d="M146 528c-4 0 -10 1 -13 4l-123 126c-5 5 -10 13 -10 21s5 13 12 13c5 0 12 -2 16 -6l118 -93l127 92c5 3 10 6 16 6c7 0 14 -5 14 -14c0 -8 -5 -14 -10 -19l-134 -126c-4 -3 -8 -4 -13 -4zM160 328c32 -77 94 -154 94 -240c0 -27 -7 -54 -23 -77c46 0 140 103 166 142
c6 9 15 22 26 22c12 0 15 -10 15 -20c0 -7 -6 -15 -9 -21c-75 -118 -161 -187 -306 -187c-38 0 -89 5 -118 33c-6 6 -11 13 -11 22c0 10 7 15 16 15c8 0 20 -9 18 -7c21 -16 45 -19 71 -19c53 0 81 36 81 87c0 60 -37 145 -70 194c-19 -54 -58 -136 -98 -176
c-6 -6 -16 -16 -26 -16c-8 0 -14 6 -14 14c0 10 6 18 12 26c45 56 80 122 102 191c-6 17 -9 35 -9 53c0 39 26 117 74 117c25 0 32 -34 32 -54c0 -33 -11 -68 -23 -99z" />
    <glyph glyph-name="Scaron" unicode="&#x160;" horiz-adv-x="557" 
d="M406 748c-4 0 -10 1 -13 4l-123 126c-5 5 -10 13 -10 21s5 13 12 13c5 0 12 -2 16 -6l118 -93l127 92c5 3 10 6 16 6c7 0 14 -5 14 -14c0 -8 -5 -14 -10 -19l-134 -126c-4 -3 -8 -4 -13 -4zM425 567c0 33 66 62 66 93c0 20 -36 20 -49 20c-23 0 -46 -1 -68 -5
c-63 -11 -169 -63 -169 -138c0 -124 279 -220 279 -377c0 -154 -242 -183 -356 -183c-18 0 -35 1 -53 3c-17 2 -75 3 -75 29c0 22 14 22 32 22c33 0 65 -13 98 -13c72 0 282 22 282 121c0 112 -301 206 -301 386c0 158 235 188 353 188c37 0 108 -8 108 -58
c0 -25 -12 -50 -30 -67c-19 -18 -64 -46 -91 -46c-15 0 -26 10 -26 25z" />
    <glyph glyph-name="ydieresis" unicode="&#xff;" horiz-adv-x="455" 
d="M167 436c-23 0 -41 16 -41 40c0 22 8 51 35 51c21 0 43 -18 43 -40c0 -27 -5 -51 -37 -51zM307 436c-23 0 -41 16 -41 40c0 22 8 51 35 51c21 0 43 -18 43 -40c0 -27 -5 -51 -37 -51zM117 -414c-61 0 -84 55 -84 108c0 134 159 266 262 334c1 19 1 38 1 57
c0 52 -1 103 -3 155c-33 -55 -165 -206 -231 -206c-45 0 -54 44 -54 80c0 60 17 123 35 180c4 13 7 26 13 38c8 16 19 28 38 28c22 0 43 -18 43 -41c0 -17 -15 -44 -21 -60c-14 -35 -42 -121 -42 -157c0 -6 0 -21 10 -21c16 0 58 42 70 54c54 55 98 120 146 181
c9 11 20 28 36 28c7 0 14 -3 20 -7c16 -11 16 -87 16 -111c0 -179 -6 -386 -104 -538c-33 -51 -87 -102 -151 -102zM290 -15c-85 -68 -213 -175 -213 -293c0 -25 7 -64 39 -64s63 37 81 60c52 70 84 210 93 297z" />
    <glyph glyph-name="yacute" unicode="&#xfd;" horiz-adv-x="455" 
d="M117 -414c-61 0 -84 55 -84 108c0 134 159 266 262 334c1 19 1 38 1 57c0 52 -1 103 -3 155c-33 -55 -165 -206 -231 -206c-45 0 -54 44 -54 80c0 60 17 123 35 180c4 13 7 26 13 38c8 16 19 28 38 28c22 0 43 -18 43 -41c0 -17 -15 -44 -21 -60
c-14 -35 -42 -121 -42 -157c0 -6 0 -21 10 -21c16 0 58 42 70 54c54 55 98 120 146 181c9 11 20 28 36 28c7 0 14 -3 20 -7c16 -11 16 -87 16 -111c0 -179 -6 -386 -104 -538c-33 -51 -87 -102 -151 -102zM290 -15c-85 -68 -213 -175 -213 -293c0 -25 7 -64 39 -64
s63 37 81 60c52 70 84 210 93 297zM214 422c-8 0 -14 7 -14 15c0 7 4 14 7 20l58 102c9 16 18 36 29 51c7 9 18 15 30 15c18 0 32 -14 32 -32c0 -8 -3 -15 -7 -21c-12 -18 -28 -36 -42 -53c-23 -28 -51 -61 -70 -82c0 0 -14 -15 -23 -15z" />
    <glyph glyph-name="udieresis" unicode="&#xfc;" horiz-adv-x="500" 
d="M177 436c-23 0 -41 16 -41 40c0 22 8 51 35 51c21 0 43 -18 43 -40c0 -27 -5 -51 -37 -51zM317 436c-23 0 -41 16 -41 40c0 22 8 51 35 51c21 0 43 -18 43 -40c0 -27 -5 -51 -37 -51zM19 130c0 60 8 126 27 183c10 30 37 49 68 49c15 0 23 -7 23 -22c0 -11 -4 -22 -7 -33
c-21 -66 -47 -167 -47 -236c0 -13 0 -40 19 -40c67 0 187 205 213 264c11 25 20 64 54 64c12 0 22 -3 22 -17c0 -13 -6 -26 -10 -38c-22 -58 -40 -155 -40 -217c0 -19 3 -71 30 -71c40 0 132 128 155 165c6 10 19 28 30 28c12 0 14 -9 14 -19c0 -7 -4 -15 -7 -21
c-32 -63 -137 -197 -213 -197c-61 0 -66 97 -66 141c0 13 0 25 2 38c-39 -56 -120 -162 -195 -162c-71 0 -72 90 -72 141z" />
    <glyph glyph-name="ucircumflex" unicode="&#xfb;" horiz-adv-x="500" 
d="M236 572c4 0 9 -1 12 -5l108 -125c5 -6 9 -13 9 -21c0 -9 -4 -13 -10 -13c-5 0 -11 2 -14 6l-105 93l-112 -92c-4 -4 -9 -6 -14 -6c-7 0 -13 5 -13 14c0 8 5 14 9 19l119 125c3 4 7 5 11 5zM19 130c0 60 8 126 27 183c10 30 37 49 68 49c15 0 23 -7 23 -22
c0 -11 -4 -22 -7 -33c-21 -66 -47 -167 -47 -236c0 -13 0 -40 19 -40c67 0 187 205 213 264c11 25 20 64 54 64c12 0 22 -3 22 -17c0 -13 -6 -26 -10 -38c-22 -58 -40 -155 -40 -217c0 -19 3 -71 30 -71c40 0 132 128 155 165c6 10 19 28 30 28c12 0 14 -9 14 -19
c0 -7 -4 -15 -7 -21c-32 -63 -137 -197 -213 -197c-61 0 -66 97 -66 141c0 13 0 25 2 38c-39 -56 -120 -162 -195 -162c-71 0 -72 90 -72 141z" />
    <glyph glyph-name="uacute" unicode="&#xfa;" horiz-adv-x="500" 
d="M224 402c-8 0 -14 7 -14 15c0 7 4 14 7 20l58 102c9 16 18 36 29 51c7 9 18 15 30 15c18 0 32 -14 32 -32c0 -8 -3 -15 -7 -21c-12 -18 -28 -36 -42 -53c-23 -28 -45 -56 -70 -82c-8 -8 -15 -15 -23 -15zM19 130c0 60 8 126 27 183c10 30 37 49 68 49c15 0 23 -7 23 -22
c0 -11 -4 -22 -7 -33c-21 -66 -47 -167 -47 -236c0 -13 0 -40 19 -40c67 0 187 205 213 264c11 25 20 64 54 64c12 0 22 -3 22 -17c0 -13 -6 -26 -10 -38c-22 -58 -40 -155 -40 -217c0 -19 3 -71 30 -71c40 0 132 128 155 165c6 10 19 28 30 28c12 0 14 -9 14 -19
c0 -7 -4 -15 -7 -21c-32 -63 -137 -197 -213 -197c-61 0 -66 97 -66 141c0 13 0 25 2 38c-39 -56 -120 -162 -195 -162c-71 0 -72 90 -72 141z" />
    <glyph glyph-name="ugrave" unicode="&#xf9;" horiz-adv-x="500" 
d="M252 402c-8 0 -15 7 -23 15c-25 26 -47 54 -70 82c-14 17 -30 35 -42 53c-4 6 -7 13 -7 21c0 18 14 32 32 32c12 0 23 -6 30 -15c11 -15 20 -35 29 -51l58 -102c3 -6 7 -13 7 -20c0 -8 -6 -15 -14 -15zM19 130c0 60 8 126 27 183c10 30 37 49 68 49c15 0 23 -7 23 -22
c0 -11 -4 -22 -7 -33c-21 -66 -47 -167 -47 -236c0 -13 0 -40 19 -40c67 0 187 205 213 264c11 25 20 64 54 64c12 0 22 -3 22 -17c0 -13 -6 -26 -10 -38c-22 -58 -40 -155 -40 -217c0 -19 3 -71 30 -71c40 0 132 128 155 165c6 10 19 28 30 28c12 0 14 -9 14 -19
c0 -7 -4 -15 -7 -21c-32 -63 -137 -197 -213 -197c-61 0 -66 97 -66 141c0 13 0 25 2 38c-39 -56 -120 -162 -195 -162c-71 0 -72 90 -72 141z" />
    <glyph glyph-name="divide" unicode="&#xf7;" horiz-adv-x="475" 
d="M238 230c-18 0 -32 13 -32 31c0 17 15 33 32 33s31 -16 31 -33c0 -18 -13 -31 -31 -31zM238 36c-18 0 -32 14 -32 31c0 18 15 32 32 32c18 0 31 -14 31 -32c0 -17 -13 -31 -31 -31zM60 148v33h355v-33h-355z" />
    <glyph glyph-name="odieresis" unicode="&#xf6;" horiz-adv-x="368" 
d="M25 114c0 100 68 265 187 265c74 0 94 -77 94 -137c0 -88 -31 -184 -107 -235c-23 -15 -50 -26 -78 -26c-72 0 -96 73 -96 133zM212 313c-75 0 -115 -142 -115 -201c0 -32 9 -82 50 -82c17 0 33 9 46 19c50 39 71 113 71 174c0 33 -9 90 -52 90zM157 436
c-23 0 -41 16 -41 40c0 22 8 51 35 51c21 0 43 -18 43 -40c0 -27 -5 -51 -37 -51zM297 436c-23 0 -41 16 -41 40c0 22 8 51 35 51c21 0 43 -18 43 -40c0 -27 -5 -51 -37 -51z" />
    <glyph glyph-name="otilde" unicode="&#xf5;" horiz-adv-x="368" 
d="M25 114c0 100 68 265 187 265c74 0 94 -77 94 -137c0 -88 -31 -184 -107 -235c-23 -15 -50 -26 -78 -26c-72 0 -96 73 -96 133zM212 313c-75 0 -115 -142 -115 -201c0 -32 9 -82 50 -82c17 0 33 9 46 19c50 39 71 113 71 174c0 33 -9 90 -52 90zM277 413
c-70 0 -68 55 -109 55c-33 0 -60 -17 -60 -35c0 -7 -3 -15 -14 -15s-14 8 -14 15c0 46 51 82 88 82c60 0 61 -54 109 -54c22 0 45 12 45 29c0 8 4 14 15 14c10 0 14 -7 14 -16c0 -49 -33 -75 -74 -75z" />
    <glyph glyph-name="ocircumflex" unicode="&#xf4;" horiz-adv-x="368" 
d="M25 114c0 100 68 265 187 265c74 0 94 -77 94 -137c0 -88 -31 -184 -107 -235c-23 -15 -50 -26 -78 -26c-72 0 -96 73 -96 133zM212 313c-75 0 -115 -142 -115 -201c0 -32 9 -82 50 -82c17 0 33 9 46 19c50 39 71 113 71 174c0 33 -9 90 -52 90zM216 562c4 0 9 -1 12 -5
l108 -125c5 -6 9 -13 9 -21c0 -9 -4 -13 -10 -13c-5 0 -11 2 -14 6l-105 93l-112 -92c-4 -4 -9 -6 -14 -6c-7 0 -13 5 -13 14c0 8 5 14 9 19l119 125c3 4 7 5 11 5z" />
    <glyph glyph-name="oacute" unicode="&#xf3;" horiz-adv-x="368" 
d="M25 114c0 100 68 265 187 265c74 0 94 -77 94 -137c0 -88 -31 -184 -107 -235c-23 -15 -50 -26 -78 -26c-72 0 -96 73 -96 133zM212 313c-75 0 -115 -142 -115 -201c0 -32 9 -82 50 -82c17 0 33 9 46 19c50 39 71 113 71 174c0 33 -9 90 -52 90zM214 412
c-8 0 -14 7 -14 15c0 7 4 14 7 20l58 102c15 26 27 66 59 66c18 0 32 -14 32 -32c0 -22 -31 -52 -49 -74c-32 -39 -73 -97 -93 -97z" />
    <glyph glyph-name="ograve" unicode="&#xf2;" horiz-adv-x="368" 
d="M25 114c0 100 68 265 187 265c74 0 94 -77 94 -137c0 -88 -31 -184 -107 -235c-23 -15 -50 -26 -78 -26c-72 0 -96 73 -96 133zM212 313c-75 0 -115 -142 -115 -201c0 -32 9 -82 50 -82c17 0 33 9 46 19c50 39 71 113 71 174c0 33 -9 90 -52 90zM222 412
c-20 0 -61 58 -93 97c-18 22 -49 52 -49 74c0 18 14 32 32 32c32 0 44 -40 59 -66l58 -102c3 -6 7 -13 7 -20c0 -8 -6 -15 -14 -15z" />
    <glyph glyph-name="ntilde" unicode="&#xf1;" horiz-adv-x="451" 
d="M287 473c-70 0 -68 55 -109 55c-33 0 -60 -17 -60 -35c0 -7 -3 -15 -14 -15s-14 8 -14 15c0 46 51 82 88 82c60 0 61 -54 109 -54c22 0 45 12 45 29c0 8 4 14 15 14c10 0 14 -7 14 -16c0 -49 -33 -75 -74 -75zM22 -36c-14 0 -21 12 -21 25c0 98 26 206 46 302
c6 31 11 63 18 94c5 24 33 48 58 48c23 0 30 -13 30 -34c0 -34 -14 -75 -26 -107c-14 -37 -22 -76 -27 -115c0 0 122 178 174 178c39 0 40 -68 40 -97v-140c0 -23 1 -60 32 -60c53 0 115 94 138 138c5 9 13 23 24 23c10 0 17 -11 17 -20c0 -5 -5 -15 -7 -20
c-29 -62 -117 -170 -192 -170c-62 0 -73 67 -73 117v15l4 114c0 5 -1 20 -9 20c-7 0 -18 -11 -23 -16c-33 -32 -63 -78 -87 -117c-29 -47 -52 -96 -75 -146c-8 -16 -22 -32 -41 -32z" />
    <glyph glyph-name="idieresis" unicode="&#xef;" horiz-adv-x="263" 
d="M47 386c-23 0 -41 16 -41 40c0 22 8 51 35 51c21 0 43 -18 43 -40c0 -27 -5 -51 -37 -51zM187 386c-23 0 -41 16 -41 40c0 22 8 51 35 51c21 0 43 -18 43 -40c0 -27 -5 -51 -37 -51zM98 119c0 -23 1 -91 35 -91c54 0 132 115 162 162c6 9 14 21 25 21c13 0 13 -12 13 -22
c0 -13 -19 -40 -27 -51c-38 -54 -123 -160 -194 -160c-79 0 -91 113 -91 171c0 37 10 88 21 123c12 36 30 64 72 64c15 0 23 -6 23 -22c0 -27 -23 -76 -30 -106c-6 -29 -9 -59 -9 -89z" />
    <glyph glyph-name="icircumflex" unicode="&#xee;" horiz-adv-x="263" 
d="M106 532c4 0 9 -1 12 -5l108 -125c5 -6 9 -13 9 -21c0 -9 -4 -13 -10 -13c-5 0 -11 2 -14 6l-105 93l-112 -92c-4 -4 -9 -6 -14 -6c-7 0 -13 5 -13 14c0 8 5 14 9 19l119 125c3 4 7 5 11 5zM98 119c0 -23 1 -91 35 -91c54 0 132 115 162 162c6 9 14 21 25 21
c13 0 13 -12 13 -22c0 -13 -19 -40 -27 -51c-38 -54 -123 -160 -194 -160c-79 0 -91 113 -91 171c0 37 10 88 21 123c12 36 30 64 72 64c15 0 23 -6 23 -22c0 -27 -23 -76 -30 -106c-6 -29 -9 -59 -9 -89z" />
    <glyph glyph-name="iacute" unicode="&#xed;" horiz-adv-x="263" 
d="M84 382c-8 0 -14 7 -14 15c0 7 4 14 7 20l58 102c15 26 27 66 59 66c18 0 32 -14 32 -32c0 -22 -31 -52 -49 -74c-32 -39 -73 -97 -93 -97zM98 119c0 -23 1 -91 35 -91c54 0 132 115 162 162c6 9 14 21 25 21c13 0 13 -12 13 -22c0 -13 -19 -40 -27 -51
c-38 -54 -123 -160 -194 -160c-79 0 -91 113 -91 171c0 37 10 88 21 123c12 36 30 64 72 64c15 0 23 -6 23 -22c0 -27 -23 -76 -30 -106c-6 -29 -9 -59 -9 -89z" />
    <glyph glyph-name="igrave" unicode="&#xec;" horiz-adv-x="263" 
d="M114 382c-20 0 -61 58 -93 97c-18 22 -49 52 -49 74c0 18 14 32 32 32c32 0 44 -40 59 -66l58 -102c3 -6 7 -13 7 -20c0 -8 -6 -15 -14 -15zM98 119c0 -23 1 -91 35 -91c54 0 132 115 162 162c6 9 14 21 25 21c13 0 13 -12 13 -22c0 -13 -19 -40 -27 -51
c-38 -54 -123 -160 -194 -160c-79 0 -91 113 -91 171c0 37 10 88 21 123c12 36 30 64 72 64c15 0 23 -6 23 -22c0 -27 -23 -76 -30 -106c-6 -29 -9 -59 -9 -89z" />
    <glyph glyph-name="edieresis" unicode="&#xeb;" horiz-adv-x="321" 
d="M120 -13c-19 0 -39 2 -55 13c-41 27 -56 73 -56 123c0 68 39 185 102 245c23 22 50 36 79 36c36 0 56 -25 56 -60c0 -64 -91 -172 -155 -195c-3 -11 -5 -28 -5 -45c0 -21 5 -42 20 -56c10 -9 24 -14 45 -14c82 0 153 73 191 139c6 10 17 26 30 26c6 0 14 -4 14 -11
c0 -13 -2 -18 -9 -30c-52 -91 -147 -171 -257 -171zM185 357c-8 0 -17 -6 -25 -15c-32 -36 -62 -128 -66 -155c41 25 108 94 108 147c0 11 -4 23 -17 23zM131 446c-23 0 -41 16 -41 40c0 22 8 51 35 51c21 0 43 -18 43 -40c0 -27 -5 -51 -37 -51zM271 446
c-23 0 -41 16 -41 40c0 22 8 51 35 51c21 0 43 -18 43 -40c0 -27 -5 -51 -37 -51z" />
    <glyph glyph-name="ecircumflex" unicode="&#xea;" horiz-adv-x="321" 
d="M120 -13c-19 0 -39 2 -55 13c-41 27 -56 73 -56 123c0 68 39 185 102 245c23 22 50 36 79 36c36 0 56 -25 56 -60c0 -64 -91 -172 -155 -195c-3 -11 -5 -28 -5 -45c0 -21 5 -42 20 -56c10 -9 24 -14 45 -14c82 0 153 73 191 139c6 10 17 26 30 26c6 0 14 -4 14 -11
c0 -13 -2 -18 -9 -30c-52 -91 -147 -171 -257 -171zM185 357c-8 0 -17 -6 -25 -15c-32 -36 -62 -128 -66 -155c41 25 108 94 108 147c0 11 -4 23 -17 23zM176 572c4 0 9 -1 12 -5l108 -125c5 -6 9 -13 9 -21c0 -9 -4 -13 -10 -13c-5 0 -11 2 -14 6l-105 93l-112 -92
c-4 -4 -9 -6 -14 -6c-7 0 -13 5 -13 14c0 8 5 14 9 19l119 125c3 4 7 5 11 5z" />
    <glyph glyph-name="eacute" unicode="&#xe9;" horiz-adv-x="321" 
d="M120 -13c-19 0 -39 2 -55 13c-41 27 -56 73 -56 123c0 68 39 185 102 245c23 22 50 36 79 36c36 0 56 -25 56 -60c0 -64 -91 -172 -155 -195c-3 -11 -5 -28 -5 -45c0 -21 5 -42 20 -56c10 -9 24 -14 45 -14c82 0 153 73 191 139c6 10 17 26 30 26c6 0 14 -4 14 -11
c0 -13 -2 -18 -9 -30c-52 -91 -147 -171 -257 -171zM185 357c-8 0 -17 -6 -25 -15c-32 -36 -62 -128 -66 -155c41 25 108 94 108 147c0 11 -4 23 -17 23zM184 442c-8 0 -14 7 -14 15c0 7 4 14 7 20l58 102c15 26 27 66 59 66c18 0 32 -14 32 -32c0 -22 -31 -52 -49 -74
c-32 -39 -73 -97 -93 -97z" />
    <glyph glyph-name="egrave" unicode="&#xe8;" horiz-adv-x="321" 
d="M120 -13c-19 0 -39 2 -55 13c-41 27 -56 73 -56 123c0 68 39 185 102 245c23 22 50 36 79 36c36 0 56 -25 56 -60c0 -64 -91 -172 -155 -195c-3 -11 -5 -28 -5 -45c0 -21 5 -42 20 -56c10 -9 24 -14 45 -14c82 0 153 73 191 139c6 10 17 26 30 26c6 0 14 -4 14 -11
c0 -13 -2 -18 -9 -30c-52 -91 -147 -171 -257 -171zM185 357c-8 0 -17 -6 -25 -15c-32 -36 -62 -128 -66 -155c41 25 108 94 108 147c0 11 -4 23 -17 23zM192 442c-20 0 -62 58 -94 97c-18 22 -48 52 -48 74c0 18 14 32 32 32c32 0 45 -40 60 -66l57 -102c3 -6 7 -13 7 -20
c0 -8 -6 -15 -14 -15z" />
    <glyph glyph-name="ccedilla" unicode="&#xe7;" horiz-adv-x="369" 
d="M229 -9c4 -16 5 -33 5 -50c0 -57 -46 -86 -98 -86c-14 0 -38 3 -38 22c0 11 8 22 20 22l21 -3c21 0 49 21 49 43c0 14 -3 28 -7 41c-10 -1 -21 -2 -31 -2c-92 0 -129 91 -129 170c0 104 66 253 187 253c50 0 81 -23 81 -76c0 -31 -8 -85 -49 -85c-6 0 -11 3 -11 10
c0 15 18 39 18 68c0 18 -1 39 -24 39c-77 0 -118 -162 -118 -220c0 -51 20 -104 80 -104c89 0 160 69 203 141c6 10 17 26 30 26c9 0 16 -7 16 -16c0 -7 -4 -14 -8 -21c-44 -78 -113 -144 -197 -172z" />
    <glyph glyph-name="aring" unicode="&#xe5;" 
d="M222 428c-38 0 -52 37 -52 69c0 48 35 115 90 115c39 0 51 -40 51 -72c0 -47 -36 -112 -89 -112zM261 577c-33 0 -52 -63 -52 -89c0 -10 0 -31 14 -31c33 0 58 59 58 86c0 11 -6 34 -20 34zM476 162c0 -12 -15 -31 -22 -41c-37 -52 -110 -143 -180 -143
c-66 0 -74 108 -74 155c-26 -41 -87 -132 -140 -132c-49 0 -60 66 -60 104c0 105 109 288 226 288c14 0 33 -17 33 -31c0 -6 -5 -9 -10 -12c-36 -21 -69 -44 -98 -74c-52 -53 -85 -121 -85 -196c0 -8 1 -24 13 -24c45 0 129 177 148 218c7 15 15 30 34 30c10 0 23 -3 23 -16
c0 -14 -13 -43 -18 -58c-11 -34 -15 -76 -15 -111c0 -21 1 -98 32 -98c47 0 122 99 149 135c0 0 14 25 28 25c12 0 16 -8 16 -19z" />
    <glyph glyph-name="adieresis" unicode="&#xe4;" 
d="M141 436c-23 0 -41 16 -41 40c0 22 8 51 35 51c21 0 43 -18 43 -40c0 -27 -5 -51 -37 -51zM281 436c-23 0 -41 16 -41 40c0 22 8 51 35 51c21 0 43 -18 43 -40c0 -27 -5 -51 -37 -51zM476 162c0 -12 -15 -31 -22 -41c-37 -52 -110 -143 -180 -143c-66 0 -74 108 -74 155
c-26 -41 -87 -132 -140 -132c-49 0 -60 66 -60 104c0 105 109 288 226 288c14 0 33 -17 33 -31c0 -6 -5 -9 -10 -12c-36 -21 -69 -44 -98 -74c-52 -53 -85 -121 -85 -196c0 -8 1 -24 13 -24c45 0 129 177 148 218c7 15 15 30 34 30c10 0 23 -3 23 -16c0 -14 -13 -43 -18 -58
c-11 -34 -15 -76 -15 -111c0 -21 1 -98 32 -98c47 0 122 99 149 135c0 0 14 25 28 25c12 0 16 -8 16 -19z" />
    <glyph glyph-name="atilde" unicode="&#xe3;" 
d="M267 423c-70 0 -68 55 -109 55c-33 0 -60 -17 -60 -35c0 -7 -3 -15 -14 -15s-14 8 -14 15c0 46 51 82 88 82c60 0 61 -54 109 -54c22 0 45 12 45 29c0 8 4 14 15 14c10 0 14 -7 14 -16c0 -49 -33 -75 -74 -75zM476 162c0 -12 -15 -31 -22 -41
c-37 -52 -110 -143 -180 -143c-66 0 -74 108 -74 155c-26 -41 -87 -132 -140 -132c-49 0 -60 66 -60 104c0 105 109 288 226 288c14 0 33 -17 33 -31c0 -6 -5 -9 -10 -12c-36 -21 -69 -44 -98 -74c-52 -53 -85 -121 -85 -196c0 -8 1 -24 13 -24c45 0 129 177 148 218
c7 15 15 30 34 30c10 0 23 -3 23 -16c0 -14 -13 -43 -18 -58c-11 -34 -15 -76 -15 -111c0 -21 1 -98 32 -98c47 0 122 99 149 135c0 0 14 25 28 25c12 0 16 -8 16 -19z" />
    <glyph glyph-name="acircumflex" unicode="&#xe2;" 
d="M196 552c4 0 9 -1 12 -5l108 -125c5 -6 9 -13 9 -21c0 -9 -4 -13 -10 -13c-5 0 -11 2 -14 6l-105 93l-112 -92c-4 -4 -9 -6 -14 -6c-7 0 -13 5 -13 14c0 8 5 14 9 19l119 125c3 4 7 5 11 5zM476 162c0 -12 -15 -31 -22 -41c-37 -52 -110 -143 -180 -143
c-66 0 -74 108 -74 155c-26 -41 -87 -132 -140 -132c-49 0 -60 66 -60 104c0 105 109 288 226 288c14 0 33 -17 33 -31c0 -6 -5 -9 -10 -12c-36 -21 -69 -44 -98 -74c-52 -53 -85 -121 -85 -196c0 -8 1 -24 13 -24c45 0 129 177 148 218c7 15 15 30 34 30c10 0 23 -3 23 -16
c0 -14 -13 -43 -18 -58c-11 -34 -15 -76 -15 -111c0 -21 1 -98 32 -98c47 0 122 99 149 135c0 0 14 25 28 25c12 0 16 -8 16 -19z" />
    <glyph glyph-name="aacute" unicode="&#xe1;" 
d="M476 162c0 -18 -109 -184 -202 -184c-66 0 -74 108 -74 155c-26 -41 -87 -132 -140 -132c-49 0 -60 66 -60 104c0 105 109 288 226 288c14 0 33 -17 33 -31c0 -6 -5 -10 -10 -12c-91 -38 -183 -152 -183 -270c0 -8 1 -24 13 -24c45 0 129 177 148 218c7 15 15 30 34 30
c10 0 23 -3 23 -16c0 -14 -13 -43 -18 -58c-11 -34 -15 -76 -15 -111c0 -21 1 -98 32 -98c47 0 122 99 149 135c0 0 14 25 28 25c12 0 16 -8 16 -19zM194 432c-8 0 -14 7 -14 15c0 7 4 14 7 20l58 102c15 26 27 66 59 66c18 0 32 -14 32 -32c0 -22 -31 -52 -49 -74
c-32 -39 -73 -97 -93 -97z" />
    <glyph glyph-name="agrave" unicode="&#xe0;" 
d="M476 162c0 -18 -109 -184 -202 -184c-66 0 -74 108 -74 155c-26 -41 -87 -132 -140 -132c-49 0 -60 66 -60 104c0 105 109 288 226 288c14 0 33 -17 33 -31c0 -6 -5 -10 -10 -12c-91 -38 -183 -152 -183 -270c0 -8 1 -24 13 -24c45 0 129 177 148 218c7 15 15 30 34 30
c10 0 23 -3 23 -16c0 -14 -13 -43 -18 -58c-11 -34 -15 -76 -15 -111c0 -21 1 -98 32 -98c47 0 122 99 149 135c0 0 14 25 28 25c12 0 16 -8 16 -19zM208 432c-20 0 -61 58 -93 97c-18 22 -49 52 -49 74c0 18 14 32 32 32c32 0 44 -40 59 -66l58 -102c3 -6 7 -13 7 -20
c0 -8 -6 -15 -14 -15z" />
    <glyph glyph-name="Yacute" unicode="&#xdd;" horiz-adv-x="588" 
d="M432 367c-46 -108 -167 -354 -304 -354c-108 0 -116 152 -116 230c0 106 0 217 31 326c0 0 24 88 52 101c9 5 20 5 30 5c19 0 34 -8 34 -29c0 -6 -2 -11 -3 -17c-34 -129 -48 -273 -48 -406c0 -35 0 -132 51 -132c103 0 255 348 291 434c8 19 26 54 28 72c0 0 6 64 40 64
h17c20 0 25 -13 25 -29v-5c-4 -48 -9 -95 -15 -140c-22 -178 -107 -745 -353 -745c-37 0 -75 16 -102 40c-10 9 -27 29 -27 42c0 9 7 15 16 15c20 0 52 -54 115 -54c37 0 71 20 93 49c89 116 137 387 145 533zM304 712c-8 0 -14 7 -14 15c0 7 4 14 7 20l58 102
c9 16 18 36 29 51c7 9 18 15 30 15c18 0 32 -14 32 -32c0 -8 -3 -15 -7 -21c-12 -18 -28 -36 -42 -53c-23 -28 -51 -61 -70 -82c0 0 -14 -15 -23 -15z" />
    <glyph glyph-name="Udieresis" unicode="&#xdc;" horiz-adv-x="595" 
d="M301 676c-23 0 -41 16 -41 40c0 22 8 51 35 51c21 0 43 -18 43 -40c0 -27 -5 -51 -37 -51zM441 676c-23 0 -41 16 -41 40c0 22 8 51 35 51c21 0 43 -18 43 -40c0 -27 -5 -51 -37 -51zM581 608c0 -19 -33 -115 -40 -144c-32 -140 -54 -283 -62 -427c0 -24 1 -39 1 -53
c0 -17 -4 -38 -26 -38c-29 0 -30 105 -30 136c0 82 4 163 14 244c-52 -101 -176 -317 -306 -317c-102 0 -106 134 -106 207c0 108 25 282 40 326c0 0 26 89 56 102c8 4 17 4 26 4c19 0 38 -3 38 -27c0 -7 -2 -13 -4 -19c-37 -123 -60 -284 -60 -411c0 -34 1 -104 45 -104
c102 0 264 329 305 415c9 19 26 48 30 68c7 31 14 63 54 63c15 0 25 -10 25 -25z" />
    <glyph glyph-name="Ucircumflex" unicode="&#xdb;" horiz-adv-x="595" 
d="M356 852c4 0 9 -1 12 -5l108 -125c5 -6 9 -13 9 -21c0 -9 -4 -13 -10 -13c-5 0 -11 2 -14 6l-105 93l-112 -92c-4 -4 -9 -6 -14 -6c-7 0 -13 5 -13 14c0 8 5 14 9 19l119 125c3 4 7 5 11 5zM581 608c0 -19 -33 -115 -40 -144c-32 -140 -54 -283 -62 -427
c0 -24 1 -39 1 -53c0 -17 -4 -38 -26 -38c-29 0 -30 105 -30 136c0 82 4 163 14 244c-52 -101 -176 -317 -306 -317c-102 0 -106 134 -106 207c0 108 25 282 40 326c0 0 26 89 56 102c8 4 17 4 26 4c19 0 38 -3 38 -27c0 -7 -2 -13 -4 -19c-37 -123 -60 -284 -60 -411
c0 -34 1 -104 45 -104c102 0 264 329 305 415c9 19 26 48 30 68c7 31 14 63 54 63c15 0 25 -10 25 -25z" />
    <glyph glyph-name="Uacute" unicode="&#xda;" horiz-adv-x="595" 
d="M324 662c-8 0 -14 7 -14 15c0 7 4 14 7 20l58 102c9 16 18 36 29 51c7 9 18 15 30 15c18 0 32 -14 32 -32c0 -8 -3 -15 -7 -21c-12 -18 -28 -36 -42 -53c-23 -28 -51 -61 -70 -82c0 0 -14 -15 -23 -15zM581 608c0 -19 -33 -115 -40 -144c-32 -140 -54 -283 -62 -427
c0 -24 1 -39 1 -53c0 -17 -4 -38 -26 -38c-29 0 -30 105 -30 136c0 82 4 163 14 244c-52 -101 -176 -317 -306 -317c-102 0 -106 134 -106 207c0 108 25 282 40 326c0 0 26 89 56 102c8 4 17 4 26 4c19 0 38 -3 38 -27c0 -7 -2 -13 -4 -19c-37 -123 -60 -284 -60 -411
c0 -34 1 -104 45 -104c102 0 264 329 305 415c9 19 26 48 30 68c7 31 14 63 54 63c15 0 25 -10 25 -25z" />
    <glyph glyph-name="Ugrave" unicode="&#xd9;" horiz-adv-x="595" 
d="M383 662c-9 0 -23 15 -23 15c-19 21 -47 54 -70 82c-14 17 -30 35 -42 53c-4 6 -7 13 -7 21c0 18 14 32 32 32c12 0 23 -6 30 -15c11 -15 20 -35 29 -51l58 -102c3 -6 7 -13 7 -20c0 -8 -6 -15 -14 -15zM581 608c0 -19 -33 -115 -40 -144c-32 -140 -54 -283 -62 -427
c0 -24 1 -39 1 -53c0 -17 -4 -38 -26 -38c-29 0 -30 105 -30 136c0 82 4 163 14 244c-52 -101 -176 -317 -306 -317c-102 0 -106 134 -106 207c0 108 25 282 40 326c0 0 26 89 56 102c8 4 17 4 26 4c19 0 38 -3 38 -27c0 -7 -2 -13 -4 -19c-37 -123 -60 -284 -60 -411
c0 -34 1 -104 45 -104c102 0 264 329 305 415c9 19 26 48 30 68c7 31 14 63 54 63c15 0 25 -10 25 -25z" />
    <glyph glyph-name="multiply" unicode="&#xd7;" horiz-adv-x="452" 
d="M366 -9l-140 139l-140 -140l-26 26l140 140l-140 140l26 27l140 -140l140 140l26 -27l-140 -140l140 -140z" />
    <glyph glyph-name="Odieresis" unicode="&#xd6;" horiz-adv-x="613" 
d="M218 -40c-156 0 -200 153 -200 282c0 142 49 318 151 421c39 39 88 68 144 68c22 0 42 -10 64 -10c15 0 30 3 45 3c108 0 141 -210 141 -291c0 -189 -124 -473 -345 -473zM373 665c-44 0 -82 -27 -112 -57c-91 -92 -151 -261 -151 -389c0 -91 27 -193 139 -193
c166 0 261 249 261 388c0 82 -29 251 -137 251zM301 786c-23 0 -41 16 -41 40c0 22 8 51 35 51c21 0 43 -18 43 -40c0 -27 -5 -51 -37 -51zM441 786c-23 0 -41 16 -41 40c0 22 8 51 35 51c21 0 43 -18 43 -40c0 -27 -5 -51 -37 -51z" />
    <glyph glyph-name="Otilde" unicode="&#xd5;" horiz-adv-x="613" 
d="M218 -40c-156 0 -200 153 -200 282c0 142 49 318 151 421c39 39 88 68 144 68c22 0 42 -10 64 -10c15 0 30 3 45 3c108 0 141 -210 141 -291c0 -189 -124 -473 -345 -473zM373 665c-44 0 -82 -27 -112 -57c-91 -92 -151 -261 -151 -389c0 -91 27 -193 139 -193
c166 0 261 249 261 388c0 82 -29 251 -137 251zM427 763c-70 0 -68 55 -109 55c-33 0 -60 -17 -60 -35c0 -7 -3 -15 -14 -15s-14 8 -14 15c0 46 51 82 88 82c60 0 61 -54 109 -54c22 0 45 12 45 29c0 8 4 14 15 14c10 0 14 -7 14 -16c0 -49 -33 -75 -74 -75z" />
    <glyph glyph-name="Ocircumflex" unicode="&#xd4;" horiz-adv-x="613" 
d="M218 -40c-156 0 -200 153 -200 282c0 142 49 318 151 421c39 39 88 68 144 68c22 0 42 -10 64 -10c15 0 30 3 45 3c108 0 141 -210 141 -291c0 -189 -124 -473 -345 -473zM373 665c-44 0 -82 -27 -112 -57c-91 -92 -151 -261 -151 -389c0 -91 27 -193 139 -193
c166 0 261 249 261 388c0 82 -29 251 -137 251zM366 922c4 0 9 -1 12 -5l108 -125c5 -6 9 -13 9 -21c0 -9 -4 -13 -10 -13c-5 0 -11 2 -14 6l-105 93l-112 -92c-4 -4 -9 -6 -14 -6c-7 0 -13 5 -13 14c0 8 5 14 9 19l119 125c3 4 7 5 11 5z" />
    <glyph glyph-name="Oacute" unicode="&#xd3;" horiz-adv-x="613" 
d="M218 -40c-156 0 -200 153 -200 282c0 142 49 318 151 421c39 39 88 68 144 68c22 0 42 -10 64 -10c15 0 30 3 45 3c108 0 141 -210 141 -291c0 -189 -124 -473 -345 -473zM373 665c-44 0 -82 -27 -112 -57c-91 -92 -151 -261 -151 -389c0 -91 27 -193 139 -193
c166 0 261 249 261 388c0 82 -29 251 -137 251zM364 772c-8 0 -14 7 -14 15c0 7 4 14 7 20l58 102c9 16 18 36 29 51c7 9 18 15 30 15c18 0 32 -14 32 -32c0 -8 -3 -15 -7 -21c-12 -18 -28 -36 -42 -53c-23 -28 -51 -61 -70 -82c0 0 -14 -15 -23 -15z" />
    <glyph glyph-name="Ograve" unicode="&#xd2;" horiz-adv-x="613" 
d="M218 -40c-156 0 -200 153 -200 282c0 142 49 318 151 421c39 39 88 68 144 68c22 0 42 -10 64 -10c15 0 30 3 45 3c108 0 141 -210 141 -291c0 -189 -124 -473 -345 -473zM373 665c-44 0 -82 -27 -112 -57c-91 -92 -151 -261 -151 -389c0 -91 27 -193 139 -193
c166 0 261 249 261 388c0 82 -29 251 -137 251zM382 772c-9 0 -23 15 -23 15c-19 21 -47 54 -70 82c-14 17 -30 35 -42 53c-4 6 -7 13 -7 21c0 18 14 32 32 32c12 0 23 -6 30 -15c11 -15 20 -35 29 -51l58 -102c3 -6 7 -13 7 -20c0 -8 -6 -15 -14 -15z" />
    <glyph glyph-name="Ntilde" unicode="&#xd1;" horiz-adv-x="752" 
d="M557 673c-70 0 -68 55 -109 55c-33 0 -60 -17 -60 -35c0 -7 -3 -15 -14 -15s-14 8 -14 15c0 46 51 82 88 82c60 0 61 -54 109 -54c22 0 45 12 45 29c0 8 4 14 15 14c10 0 14 -7 14 -16c0 -49 -33 -75 -74 -75zM14 -98c-17 0 -70 2 -70 26c0 13 11 20 23 20l45 -3
c165 0 206 361 221 516c3 28 3 50 3 77c0 17 -8 32 -8 48c0 28 49 54 73 54c23 0 29 -23 32 -41l3 -24c5 -30 12 -60 20 -89c19 -71 124 -427 200 -427c16 0 27 33 31 45c32 97 50 321 50 321c4 65 7 126 7 186c0 21 7 32 29 32c18 0 19 -21 19 -34
c0 -96 -25 -629 -142 -629c-160 0 -277 417 -277 417s-42 -495 -259 -495z" />
    <glyph glyph-name="Idieresis" unicode="&#xcf;" horiz-adv-x="456" 
d="M421 588c0 -137 -47 -420 -174 -554c-43 -45 -94 -73 -156 -73c-28 0 -91 17 -91 54c0 8 10 14 17 14c21 0 26 -30 74 -30c22 0 42 9 61 25c120 101 175 480 175 583c0 27 -6 81 -43 81c-56 0 -136 -94 -160 -140c-19 -36 -32 -93 -32 -134c0 -16 2 -32 10 -46
c5 -9 9 -17 9 -28c0 -13 -7 -22 -20 -22c-37 0 -40 65 -40 91c0 50 17 101 37 147c34 77 143 198 233 198c92 0 100 -94 100 -166zM241 796c-23 0 -41 16 -41 40c0 22 8 51 35 51c21 0 43 -18 43 -40c0 -27 -5 -51 -37 -51zM381 796c-23 0 -41 16 -41 40c0 22 8 51 35 51
c21 0 43 -18 43 -40c0 -27 -5 -51 -37 -51z" />
    <glyph glyph-name="Icircumflex" unicode="&#xce;" horiz-adv-x="456" 
d="M421 588c0 -137 -47 -420 -174 -554c-43 -45 -94 -73 -156 -73c-28 0 -91 17 -91 54c0 8 10 14 17 14c21 0 26 -30 74 -30c22 0 42 9 61 25c120 101 175 480 175 583c0 27 -6 81 -43 81c-56 0 -136 -94 -160 -140c-19 -36 -32 -93 -32 -134c0 -16 2 -32 10 -46
c5 -9 9 -17 9 -28c0 -13 -7 -22 -20 -22c-37 0 -40 65 -40 91c0 50 17 101 37 147c34 77 143 198 233 198c92 0 100 -94 100 -166zM316 922c4 0 9 -1 12 -5l108 -125c5 -6 9 -13 9 -21c0 -9 -4 -13 -10 -13c-5 0 -11 2 -14 6l-105 93l-112 -92c-4 -4 -9 -6 -14 -6
c-7 0 -13 5 -13 14c0 8 5 14 9 19l119 125c3 4 7 5 11 5z" />
    <glyph glyph-name="Iacute" unicode="&#xcd;" horiz-adv-x="456" 
d="M421 588c0 -137 -47 -420 -174 -554c-43 -45 -94 -73 -156 -73c-28 0 -91 17 -91 54c0 8 10 14 17 14c21 0 26 -30 74 -30c22 0 42 9 61 25c120 101 175 480 175 583c0 27 -6 81 -43 81c-56 0 -136 -94 -160 -140c-19 -36 -32 -93 -32 -134c0 -16 2 -32 10 -46
c5 -9 9 -17 9 -28c0 -13 -7 -22 -20 -22c-37 0 -40 65 -40 91c0 50 17 101 37 147c34 77 143 198 233 198c92 0 100 -94 100 -166zM314 792c-8 0 -14 7 -14 15c0 7 4 14 7 20l58 102c9 16 18 36 29 51c7 9 18 15 30 15c18 0 32 -14 32 -32c0 -8 -3 -15 -7 -21
c-12 -18 -28 -36 -42 -53c-23 -28 -51 -61 -70 -82c0 0 -14 -15 -23 -15z" />
    <glyph glyph-name="Igrave" unicode="&#xcc;" horiz-adv-x="456" 
d="M421 588c0 -137 -47 -420 -174 -554c-43 -45 -94 -73 -156 -73c-28 0 -91 17 -91 54c0 8 10 14 17 14c21 0 26 -30 74 -30c22 0 42 9 61 25c120 101 175 480 175 583c0 27 -6 81 -43 81c-56 0 -136 -94 -160 -140c-19 -36 -32 -93 -32 -134c0 -16 2 -32 10 -46
c5 -9 9 -17 9 -28c0 -13 -7 -22 -20 -22c-37 0 -40 65 -40 91c0 50 17 101 37 147c34 77 143 198 233 198c92 0 100 -94 100 -166zM330 792c-9 0 -23 15 -23 15c-19 21 -47 54 -70 82c-14 17 -30 35 -42 53c-4 6 -7 13 -7 21c0 18 14 32 32 32c12 0 23 -6 30 -15
c11 -15 20 -35 29 -51l58 -102c3 -6 7 -13 7 -20c0 -8 -6 -15 -14 -15z" />
    <glyph glyph-name="Edieresis" unicode="&#xcb;" horiz-adv-x="515" 
d="M321 786c-23 0 -41 16 -41 40c0 22 8 51 35 51c21 0 43 -18 43 -40c0 -27 -5 -51 -37 -51zM461 786c-23 0 -41 16 -41 40c0 22 8 51 35 51c21 0 43 -18 43 -40c0 -27 -5 -51 -37 -51zM399 746c67 0 110 -39 110 -107c0 -15 0 -34 -20 -34c-29 0 -13 90 -93 90
c-118 0 -197 -238 -220 -331c43 13 194 19 245 19c6 0 41 0 41 -5c0 -19 -16 -33 -33 -37h-2c-29 0 -196 -40 -251 -54c-4 -1 -8 -2 -11 -3c-2 -12 -3 -23 -3 -35c0 -95 29 -234 149 -234c76 0 145 49 190 107c13 16 22 34 34 50c5 6 9 11 18 11c10 0 17 -8 17 -18
c0 -13 -13 -33 -21 -44c-63 -91 -174 -168 -288 -168c-152 0 -200 153 -200 280c0 13 1 20 1 27h-9c-26 0 -62 1 -62 34c0 37 52 42 79 48c33 148 150 404 329 404z" />
    <glyph glyph-name="Ecircumflex" unicode="&#xca;" horiz-adv-x="515" 
d="M396 922c4 0 9 -1 12 -5l108 -125c5 -6 9 -13 9 -21c0 -9 -4 -13 -10 -13c-5 0 -11 2 -14 6l-105 93l-112 -92c-4 -4 -9 -6 -14 -6c-7 0 -13 5 -13 14c0 8 5 14 9 19l119 125c3 4 7 5 11 5zM399 746c67 0 110 -39 110 -107c0 -15 0 -34 -20 -34c-29 0 -13 90 -93 90
c-118 0 -197 -238 -220 -331c43 13 194 19 245 19c6 0 41 0 41 -5c0 -19 -16 -33 -33 -37h-2c-29 0 -196 -40 -251 -54c-4 -1 -8 -2 -11 -3c-2 -12 -3 -23 -3 -35c0 -95 29 -234 149 -234c76 0 145 49 190 107c13 16 22 34 34 50c5 6 9 11 18 11c10 0 17 -8 17 -18
c0 -13 -13 -33 -21 -44c-63 -91 -174 -168 -288 -168c-152 0 -200 153 -200 280c0 13 1 20 1 27h-9c-26 0 -62 1 -62 34c0 37 52 42 79 48c33 148 150 404 329 404z" />
    <glyph glyph-name="Eacute" unicode="&#xc9;" horiz-adv-x="515" 
d="M399 746c67 0 110 -39 110 -107c0 -16 0 -34 -20 -34c-29 0 -13 90 -93 90c-118 0 -198 -241 -220 -331c35 11 203 19 245 19c5 0 41 0 41 -5c0 -19 -16 -33 -33 -37h-1c-23 0 -243 -52 -263 -57c-3 -11 -3 -23 -3 -35c0 -98 30 -234 149 -234c77 0 144 49 190 107
c13 16 22 33 34 50c5 7 9 11 18 11c10 0 17 -8 17 -18c0 -13 -14 -34 -21 -44c-64 -91 -174 -168 -288 -168c-151 0 -200 152 -200 280c0 12 1 27 1 27h-9c-26 0 -62 1 -62 34c0 37 51 41 79 48c33 147 149 404 329 404zM384 792c-8 0 -14 7 -14 15c0 7 4 14 7 20l58 102
c9 16 18 36 29 51c7 9 18 15 30 15c18 0 32 -14 32 -32c0 -8 -3 -15 -7 -21c-12 -18 -28 -36 -42 -53c-23 -28 -45 -56 -72 -84c-6 -6 -13 -13 -21 -13z" />
    <glyph glyph-name="Egrave" unicode="&#xc8;" horiz-adv-x="515" 
d="M399 746c67 0 110 -39 110 -107c0 -15 0 -34 -20 -34c-29 0 -13 90 -93 90c-118 0 -197 -238 -220 -331c43 13 194 19 245 19c6 0 41 0 41 -5c0 -19 -16 -33 -33 -37h-2c-29 0 -196 -40 -251 -54c-4 -1 -8 -2 -11 -3c-2 -12 -3 -23 -3 -35c0 -95 29 -234 149 -234
c76 0 145 49 190 107c13 16 22 34 34 50c5 6 9 11 18 11c10 0 17 -8 17 -18c0 -13 -13 -33 -21 -44c-63 -91 -174 -168 -288 -168c-152 0 -200 153 -200 280c0 13 1 20 1 27h-9c-26 0 -62 1 -62 34c0 37 52 42 79 48c33 148 150 404 329 404zM412 792c-9 0 -23 15 -23 15
c-19 21 -47 54 -70 82c-14 17 -30 35 -42 53c-4 6 -7 13 -7 21c0 18 14 32 32 32c12 0 23 -6 30 -15c11 -15 20 -35 29 -51l58 -102c3 -6 7 -13 7 -20c0 -8 -6 -15 -14 -15z" />
    <glyph glyph-name="Ccedilla" unicode="&#xc7;" horiz-adv-x="605" 
d="M415 -98c0 -65 -57 -86 -98 -86c-15 0 -44 10 -44 29c0 11 8 21 20 21l21 -2c23 0 49 21 49 42c0 22 -6 41 -15 61c-181 0 -275 159 -275 324c0 183 116 451 330 451c80 0 137 -60 137 -141c0 -34 -10 -144 -39 -164c-7 -5 -15 -7 -24 -7c-13 0 -25 3 -25 18s17 49 22 66
c7 27 13 58 13 86c0 46 -27 86 -76 86c-147 0 -226 -282 -226 -395c0 -135 35 -267 190 -267c88 0 167 40 222 108c12 15 21 31 31 47c6 9 15 23 27 23c9 0 16 -8 16 -17s-9 -24 -13 -32c-51 -90 -150 -161 -254 -181c7 -18 11 -42 11 -70z" />
    <glyph glyph-name="Aring" unicode="&#xc5;" horiz-adv-x="717" 
d="M432 788c-38 0 -52 37 -52 69c0 48 35 115 90 115c39 0 51 -40 51 -72c0 -47 -36 -112 -89 -112zM471 937c-33 0 -52 -63 -52 -89c0 -10 0 -31 14 -31c33 0 58 59 58 86c0 11 -6 34 -20 34zM393 305c-5 43 -9 87 -12 131c-1 24 1 52 -6 75c0 1 -2 6 -4 6
c-6 0 -29 -69 -34 -81c-19 -49 -38 -98 -60 -146c39 6 77 10 116 15zM575 -16c-124 0 -161 188 -175 282c-48 -7 -95 -17 -143 -22c-57 -120 -135 -340 -296 -340c-18 0 -71 4 -71 30c0 12 12 17 22 17l53 -9c154 0 330 521 384 650c15 37 23 70 23 110c0 30 66 52 90 52
c15 0 23 -17 23 -31c0 -10 -9 -66 -9 -228c0 -58 1 -116 7 -174c32 4 64 12 96 12c9 0 19 -3 19 -14c0 -15 -13 -22 -25 -26c-24 -9 -60 -10 -86 -14c4 -46 33 -234 93 -234c66 0 153 120 153 120c3 9 12 17 23 17c7 0 17 -6 17 -14c0 -9 -4 -17 -8 -25
c-33 -60 -116 -159 -190 -159z" />
    <glyph glyph-name="Adieresis" unicode="&#xc4;" horiz-adv-x="717" 
d="M361 796c-23 0 -41 16 -41 40c0 22 8 51 35 51c21 0 43 -18 43 -40c0 -27 -5 -51 -37 -51zM501 796c-23 0 -41 16 -41 40c0 22 8 51 35 51c21 0 43 -18 43 -40c0 -27 -5 -51 -37 -51zM393 305c-5 43 -9 87 -12 131c-1 24 1 52 -6 75c0 1 -2 6 -4 6c-6 0 -29 -69 -34 -81
c-19 -49 -38 -98 -60 -146c39 6 77 10 116 15zM575 -16c-124 0 -161 188 -175 282c-48 -7 -95 -17 -143 -22c-57 -120 -135 -340 -296 -340c-18 0 -71 4 -71 30c0 12 12 17 22 17l53 -9c154 0 330 521 384 650c15 37 23 70 23 110c0 30 66 52 90 52c15 0 23 -17 23 -31
c0 -10 -9 -66 -9 -228c0 -58 1 -116 7 -174c32 4 64 12 96 12c9 0 19 -3 19 -14c0 -15 -13 -22 -25 -26c-24 -9 -60 -10 -86 -14c4 -46 33 -234 93 -234c66 0 153 120 153 120c3 9 12 17 23 17c7 0 17 -6 17 -14c0 -9 -4 -17 -8 -25c-33 -60 -116 -159 -190 -159z" />
    <glyph glyph-name="Atilde" unicode="&#xc3;" horiz-adv-x="717" 
d="M497 783c-70 0 -68 55 -109 55c-33 0 -60 -17 -60 -35c0 -7 -3 -15 -14 -15s-14 8 -14 15c0 46 51 82 88 82c60 0 61 -54 109 -54c22 0 45 12 45 29c0 8 4 14 15 14c10 0 14 -7 14 -16c0 -49 -33 -75 -74 -75zM393 305c-5 43 -9 87 -12 131c-1 24 1 52 -6 75
c0 1 -2 6 -4 6c-6 0 -29 -69 -34 -81c-19 -49 -38 -98 -60 -146c39 6 77 10 116 15zM575 -16c-124 0 -161 188 -175 282c-48 -7 -95 -17 -143 -22c-57 -120 -135 -340 -296 -340c-18 0 -71 4 -71 30c0 12 12 17 22 17l53 -9c154 0 330 521 384 650c15 37 23 70 23 110
c0 30 66 52 90 52c15 0 23 -17 23 -31c0 -10 -9 -66 -9 -228c0 -58 1 -116 7 -174c32 4 64 12 96 12c9 0 19 -3 19 -14c0 -15 -13 -22 -25 -26c-24 -9 -60 -10 -86 -14c4 -46 33 -234 93 -234c66 0 153 120 153 120c3 9 12 17 23 17c7 0 17 -6 17 -14c0 -9 -4 -17 -8 -25
c-33 -60 -116 -159 -190 -159z" />
    <glyph glyph-name="Acircumflex" unicode="&#xc2;" horiz-adv-x="717" 
d="M429 922c4 0 9 -2 12 -5l108 -125c4 -5 9 -13 9 -21s-4 -13 -10 -13c-5 0 -10 3 -14 6l-105 93l-112 -92c-4 -3 -9 -6 -14 -6c-6 0 -13 5 -13 14c0 8 5 14 9 19l119 125c3 3 7 5 11 5zM393 305c-5 43 -9 87 -12 131c-1 24 1 52 -6 75c0 1 -2 6 -4 6c-6 0 -29 -69 -34 -81
c-19 -49 -38 -98 -60 -146c39 6 77 10 116 15zM575 -16c-124 0 -161 188 -175 282c-48 -7 -95 -17 -143 -22c-57 -120 -135 -340 -296 -340c-18 0 -71 4 -71 30c0 12 12 17 22 17l53 -9c154 0 330 521 384 650c15 37 23 70 23 110c0 30 66 52 90 52c15 0 23 -17 23 -31
c0 -10 -9 -66 -9 -228c0 -58 1 -116 7 -174c32 4 64 12 96 12c9 0 19 -3 19 -14c0 -15 -13 -22 -25 -26c-24 -9 -60 -10 -86 -14c4 -46 33 -234 93 -234c66 0 153 120 153 120c3 9 12 17 23 17c7 0 17 -6 17 -14c0 -9 -4 -17 -8 -25c-33 -60 -116 -159 -190 -159z" />
    <glyph glyph-name="Aacute" unicode="&#xc1;" horiz-adv-x="717" 
d="M393 305c-5 43 -9 87 -12 131c-1 24 1 52 -6 75c0 1 -2 6 -4 6c-6 0 -29 -69 -34 -81c-19 -49 -38 -98 -60 -146c39 6 77 10 116 15zM575 -16c-124 0 -161 188 -175 282c-48 -7 -95 -17 -143 -22c-57 -120 -135 -340 -296 -340c-18 0 -71 4 -71 30c0 12 12 17 22 17
l53 -9c154 0 330 521 384 650c15 37 23 70 23 110c0 30 66 52 90 52c15 0 23 -17 23 -31c0 -10 -9 -66 -9 -228c0 -58 1 -116 7 -174c32 4 64 12 96 12c9 0 19 -3 19 -14c0 -15 -13 -22 -25 -26c-24 -9 -60 -10 -86 -14c4 -46 33 -234 93 -234c66 0 153 120 153 120
c3 9 12 17 23 17c7 0 17 -6 17 -14c0 -9 -4 -17 -8 -25c-33 -60 -116 -159 -190 -159zM424 792c-8 0 -14 7 -14 15c0 7 4 14 7 20l58 102c9 16 18 36 29 51c7 9 18 15 30 15c18 0 32 -14 32 -32c0 -8 -3 -15 -7 -21c-12 -18 -28 -36 -42 -53c-23 -28 -51 -61 -70 -82
c0 0 -14 -15 -23 -15z" />
    <glyph glyph-name="Agrave" unicode="&#xc0;" horiz-adv-x="717" 
d="M393 305c-5 43 -9 87 -12 131c-1 24 1 52 -6 75c0 1 -2 6 -4 6c-6 0 -29 -69 -34 -81c-19 -49 -38 -98 -60 -146c39 6 77 10 116 15zM575 -16c-124 0 -161 188 -175 282c-48 -7 -95 -17 -143 -22c-57 -120 -135 -340 -296 -340c-18 0 -71 4 -71 30c0 12 12 17 22 17
l53 -9c154 0 330 521 384 650c15 37 23 70 23 110c0 30 66 52 90 52c15 0 23 -17 23 -31c0 -10 -9 -66 -9 -228c0 -58 1 -116 7 -174c32 4 64 12 96 12c9 0 19 -3 19 -14c0 -15 -13 -22 -25 -26c-24 -9 -60 -10 -86 -14c4 -46 33 -234 93 -234c66 0 153 120 153 120
c3 9 12 17 23 17c7 0 17 -6 17 -14c0 -9 -4 -17 -8 -25c-33 -60 -116 -159 -190 -159zM442 792c-9 0 -23 15 -23 15c-19 21 -47 54 -70 82c-14 17 -30 35 -42 53c-4 6 -7 13 -7 21c0 18 14 32 32 32c12 0 23 -6 30 -15c11 -15 20 -35 29 -51l58 -102c3 -6 7 -13 7 -20
c0 -8 -6 -15 -14 -15z" />
    <glyph glyph-name="plusminus" unicode="&#xb1;" horiz-adv-x="475" 
d="M255 188v-101h-34v101h-161v34h161v102h34v-102h160v-34h-160zM60 -3v34h355v-34h-355z" />
    <glyph glyph-name="registered" unicode="&#xae;" horiz-adv-x="584" 
d="M60 224c0 128 104 232 232 232s232 -104 232 -232s-104 -232 -232 -232s-232 104 -232 232zM103 224c0 -105 85 -190 190 -190s190 85 190 190s-85 190 -190 190s-190 -85 -190 -190zM202 87v275h105c64 0 95 -26 95 -78c0 -42 -28 -73 -65 -78c23 -37 51 -81 75 -119
h-54l-75 119h-32v-119h-49zM251 322v-76h49c33 0 52 7 52 40c0 27 -25 36 -52 36h-49z" />
    <glyph glyph-name="logicalnot" unicode="&#xac;" horiz-adv-x="475" 
d="M382 165h-322v33h355v-131h-33v98z" />
    <glyph glyph-name="copyright" unicode="&#xa9;" horiz-adv-x="584" 
d="M60 224c0 128 104 232 232 232s232 -104 232 -232s-104 -232 -232 -232s-232 104 -232 232zM103 224c0 -105 85 -190 190 -190s190 85 190 190s-85 190 -190 190s-190 -85 -190 -190zM371 183h47c-14 -64 -61 -105 -118 -105c-84 0 -139 64 -139 146c0 84 52 147 138 147
c58 0 107 -36 117 -102h-45c-8 37 -34 62 -72 62c-58 0 -88 -45 -88 -106c0 -56 34 -106 89 -106c39 0 65 26 71 64z" />
    <glyph glyph-name="brokenbar" unicode="&#xa6;" horiz-adv-x="153" 
d="M93 4h-33v355h33v-355zM93 445h-33v355h33v-355z" />
    <glyph glyph-name="minus" unicode="&#x2212;" horiz-adv-x="475" 
d="M60 165v33h355v-33h-355z" />
    <glyph glyph-name="_265" horiz-adv-x="250" 
 />
    <glyph glyph-name="space" unicode=" " horiz-adv-x="250" 
 />
    <glyph glyph-name="at" unicode="@" horiz-adv-x="573" 
d="M204 186c0 -40 17 -62 45 -62c62 0 104 81 104 134c0 45 -29 57 -51 57c-41 0 -98 -54 -98 -129zM425 342l-54 -171c-3 -12 -6 -24 -6 -33c0 -7 4 -14 13 -14c48 0 95 63 95 135c0 99 -89 161 -184 161c-107 0 -188 -87 -188 -197c0 -111 81 -192 188 -192
c72 0 132 28 168 71h37c-38 -68 -115 -109 -205 -109c-152 0 -229 114 -229 229c0 116 77 236 229 236c111 0 224 -72 224 -199c0 -108 -88 -173 -142 -173c-29 0 -46 13 -51 39h-1c-15 -18 -35 -39 -78 -39c-51 0 -87 43 -87 95c0 83 59 174 148 174c29 0 55 -17 70 -50
l13 37h40z" />
  </font>
</defs>
</svg>
